<svg xmlns="http://www.w3.org/2000/svg" version="1.1" width="18.200cm" height="16.700cm" viewBox="0 0 18.200 16.700">
<title>Merged SVG with per-net colors</title>
<desc>Generated by net_colored_svg tool</desc>
<rect x="0.0" y="0.0" width="18.2" height="16.7" fill="#FFFFFF" /><g style="fill:#4D7FC4; fill-opacity:1.0000; stroke:none;">
<circle cx="2.1000" cy="14.6000" r="1.7500" />
</g>
<g style="fill:#4D7FC4; fill-opacity:1.0000; stroke:none;">
<circle cx="16.1000" cy="14.6000" r="1.7500" />
</g>
<g style="fill:#4D7FC4; fill-opacity:1.0000; stroke:none;">
<circle cx="16.1000" cy="2.1000" r="1.7500" />
<path style="fill:#4D7FC4; fill-opacity:1.0000; stroke:none;fill-rule:evenodd;" d="M 9.9000,12.1250 9.8886,12.1824 9.8561,12.2311 9.8074,12.2636 9.7500,12.2750 9.4500,12.2750 9.3926,12.2636 9.3439,12.2311 9.3114,12.1824 9.3000,12.1250 9.3000,10.8750 9.3114,10.8176 9.3439,10.7689 9.3926,10.7364 9.4500,10.7250 9.7500,10.7250 9.8074,10.7364 9.8561,10.7689 9.8886,10.8176 9.9000,10.8750 Z" />
<path style="fill:#4D7FC4; fill-opacity:1.0000; stroke:none;fill-rule:evenodd;" d="M 8.9000,12.1250 8.8886,12.1824 8.8561,12.2311 8.8074,12.2636 8.7500,12.2750 8.4500,12.2750 8.3926,12.2636 8.3439,12.2311 8.3114,12.1824 8.3000,12.1250 8.3000,10.8750 8.3114,10.8176 8.3439,10.7689 8.3926,10.7364 8.4500,10.7250 8.7500,10.7250 8.8074,10.7364 8.8561,10.7689 8.8886,10.8176 8.9000,10.8750 Z" />
<path style="fill:#4D7FC4; fill-opacity:1.0000; stroke:none;fill-rule:evenodd;" d="M 12.5000,16.0250 12.4810,16.1207 12.4268,16.2018 12.3457,16.2560 12.2500,16.2750 11.5500,16.2750 11.4543,16.2560 11.3732,16.2018 11.3190,16.1207 11.3000,16.0250 11.3000,14.7250 11.3190,14.6293 11.3732,14.5482 11.4543,14.4940 11.5500,14.4750 12.2500,14.4750 12.3457,14.4940 12.4268,14.5482 12.4810,14.6293 12.5000,14.7250 Z" />
<path style="fill:#4D7FC4; fill-opacity:1.0000; stroke:none;fill-rule:evenodd;" d="M 6.9000,16.0250 6.8810,16.1207 6.8268,16.2018 6.7457,16.2560 6.6500,16.2750 5.9500,16.2750 5.8543,16.2560 5.7732,16.2018 5.7190,16.1207 5.7000,16.0250 5.7000,14.7250 5.7190,14.6293 5.7732,14.5482 5.8543,14.4940 5.9500,14.4750 6.6500,14.4750 6.7457,14.4940 6.8268,14.5482 6.8810,14.6293 6.9000,14.7250 Z" />
<path style="fill:#4D7FC4; fill-opacity:1.0000; stroke:none;fill-rule:evenodd;" d="M 6.3500,7.2400 6.3500,5.7900 6.9500,5.7900 6.9500,7.2400 Z" />
<path style="fill:#4D7FC4; fill-opacity:1.0000; stroke:none;fill-rule:evenodd;" d="M 8.7000,7.2400 8.7000,5.7900 9.0000,5.7900 9.0000,7.2400 Z" />
<path style="fill:#4D7FC4; fill-opacity:1.0000; stroke:none;fill-rule:evenodd;" d="M 9.2000,7.2400 9.2000,5.7900 9.5000,5.7900 9.5000,7.2400 Z" />
<path style="fill:#4D7FC4; fill-opacity:1.0000; stroke:none;fill-rule:evenodd;" d="M 10.2000,7.2400 10.2000,5.7900 10.5000,5.7900 10.5000,7.2400 Z" />
<path style="fill:#4D7FC4; fill-opacity:1.0000; stroke:none;fill-rule:evenodd;" d="M 11.2500,7.2400 11.2500,5.7900 11.8500,5.7900 11.8500,7.2400 Z" />
<path style="fill:#4D7FC4; fill-opacity:1.0000; stroke:none;fill-rule:evenodd;" d="M 11.2500,7.2400 11.2500,5.7900 11.8500,5.7900 11.8500,7.2400 Z" />
<path style="fill:#4D7FC4; fill-opacity:1.0000; stroke:none;fill-rule:evenodd;" d="M 9.7000,7.2400 9.7000,5.7900 10.0000,5.7900 10.0000,7.2400 Z" />
<path style="fill:#4D7FC4; fill-opacity:1.0000; stroke:none;fill-rule:evenodd;" d="M 8.2000,7.2400 8.2000,5.7900 8.5000,5.7900 8.5000,7.2400 Z" />
<path style="fill:#4D7FC4; fill-opacity:1.0000; stroke:none;fill-rule:evenodd;" d="M 7.2000,7.2400 7.2000,5.7900 7.5000,5.7900 7.5000,7.2400 Z" />
<path style="fill:#4D7FC4; fill-opacity:1.0000; stroke:none;fill-rule:evenodd;" d="M 6.3500,7.2400 6.3500,5.7900 6.9500,5.7900 6.9500,7.2400 Z" />
<path style="fill:#4D7FC4; fill-opacity:1.0000; stroke:none;fill-rule:evenodd;" d="M 16.8370,5.1040 16.9327,5.1230 17.0138,5.1772 17.0680,5.2583 17.0870,5.3540 17.0870,6.1040 17.0680,6.1997 17.0138,6.2808 16.9327,6.3350 16.8370,6.3540 15.5870,6.3540 15.4913,6.3350 15.4102,6.2808 15.3560,6.1997 15.3370,6.1040 15.3370,5.3540 15.3560,5.2583 15.4102,5.1772 15.4913,5.1230 15.5870,5.1040 Z" />
<path style="fill:#4D7FC4; fill-opacity:1.0000; stroke:none;fill-rule:evenodd;" d="M 10.2500,9.2334 10.2443,9.2621 10.2280,9.2864 10.2037,9.3027 10.1750,9.3084 10.0250,9.3084 9.9963,9.3027 9.9720,9.2864 9.9557,9.2621 9.9500,9.2334 9.9500,8.8334 9.9557,8.8047 9.9720,8.7804 9.9963,8.7641 10.0250,8.7584 10.1750,8.7584 10.2037,8.7641 10.2280,8.7804 10.2443,8.8047 10.2500,8.8334 Z" />
<path style="fill:#4D7FC4; fill-opacity:1.0000; stroke:none;fill-rule:evenodd;" d="M 9.7500,9.2334 9.7443,9.2621 9.7280,9.2864 9.7037,9.3027 9.6750,9.3084 9.5250,9.3084 9.4963,9.3027 9.4720,9.2864 9.4557,9.2621 9.4500,9.2334 9.4500,8.8334 9.4557,8.8047 9.4720,8.7804 9.4963,8.7641 9.5250,8.7584 9.6750,8.7584 9.7037,8.7641 9.7280,8.7804 9.7443,8.8047 9.7500,8.8334 Z" />
<path style="fill:#4D7FC4; fill-opacity:1.0000; stroke:none;fill-rule:evenodd;" d="M 8.7500,9.2334 8.7443,9.2621 8.7280,9.2864 8.7037,9.3027 8.6750,9.3084 8.5250,9.3084 8.4963,9.3027 8.4720,9.2864 8.4557,9.2621 8.4500,9.2334 8.4500,8.8334 8.4557,8.8047 8.4720,8.7804 8.4963,8.7641 8.5250,8.7584 8.6750,8.7584 8.7037,8.7641 8.7280,8.7804 8.7443,8.8047 8.7500,8.8334 Z" />
<path style="fill:#4D7FC4; fill-opacity:1.0000; stroke:none;fill-rule:evenodd;" d="M 8.2500,9.2334 8.2443,9.2621 8.2280,9.2864 8.2037,9.3027 8.1750,9.3084 8.0250,9.3084 7.9963,9.3027 7.9720,9.2864 7.9557,9.2621 7.9500,9.2334 7.9500,8.8334 7.9557,8.8047 7.9720,8.7804 7.9963,8.7641 8.0250,8.7584 8.1750,8.7584 8.2037,8.7641 8.2280,8.7804 8.2443,8.8047 8.2500,8.8334 Z" />
<path style="fill:#4D7FC4; fill-opacity:1.0000; stroke:none;fill-rule:evenodd;" d="M 8.2500,8.4634 8.2443,8.4921 8.2280,8.5164 8.2037,8.5327 8.1750,8.5384 8.0250,8.5384 7.9963,8.5327 7.9720,8.5164 7.9557,8.4921 7.9500,8.4634 7.9500,8.0634 7.9557,8.0347 7.9720,8.0104 7.9963,7.9941 8.0250,7.9884 8.1750,7.9884 8.2037,7.9941 8.2280,8.0104 8.2443,8.0347 8.2500,8.0634 Z" />
<path style="fill:#4D7FC4; fill-opacity:1.0000; stroke:none;fill-rule:evenodd;" d="M 8.7500,8.4634 8.7443,8.4921 8.7280,8.5164 8.7037,8.5327 8.6750,8.5384 8.5250,8.5384 8.4963,8.5327 8.4720,8.5164 8.4557,8.4921 8.4500,8.4634 8.4500,8.0634 8.4557,8.0347 8.4720,8.0104 8.4963,7.9941 8.5250,7.9884 8.6750,7.9884 8.7037,7.9941 8.7280,8.0104 8.7443,8.0347 8.7500,8.0634 Z" />
<path style="fill:#4D7FC4; fill-opacity:1.0000; stroke:none;fill-rule:evenodd;" d="M 9.7500,8.4634 9.7443,8.4921 9.7280,8.5164 9.7037,8.5327 9.6750,8.5384 9.5250,8.5384 9.4963,8.5327 9.4720,8.5164 9.4557,8.4921 9.4500,8.4634 9.4500,8.0634 9.4557,8.0347 9.4720,8.0104 9.4963,7.9941 9.5250,7.9884 9.6750,7.9884 9.7037,7.9941 9.7280,8.0104 9.7443,8.0347 9.7500,8.0634 Z" />
<path style="fill:#4D7FC4; fill-opacity:1.0000; stroke:none;fill-rule:evenodd;" d="M 10.2500,8.4634 10.2443,8.4921 10.2280,8.5164 10.2037,8.5327 10.1750,8.5384 10.0250,8.5384 9.9963,8.5327 9.9720,8.5164 9.9557,8.4921 9.9500,8.4634 9.9500,8.0634 9.9557,8.0347 9.9720,8.0104 9.9963,7.9941 10.0250,7.9884 10.1750,7.9884 10.2037,7.9941 10.2280,8.0104 10.2443,8.0347 10.2500,8.0634 Z" />
</g>
<g style="fill:#4D7FC4; fill-opacity:1.0000; stroke:none;">
<circle cx="6.6500" cy="7.8610" r="0.3000" />
</g>
<g style="fill:#4D7FC4; fill-opacity:1.0000; stroke:none;">
<circle cx="11.5500" cy="7.8610" r="0.3000" />
</g>
<g style="fill:#4D7FC4; fill-opacity:1.0000; stroke:none;">
<circle cx="7.8300" cy="9.5120" r="0.3000" />
</g>
<g style="fill:#4D7FC4; fill-opacity:1.0000; stroke:none;">
<circle cx="9.6000" cy="11.1700" r="0.3000" />
</g>
<g style="fill:#4D7FC4; fill-opacity:1.0000; stroke:none;">
<circle cx="8.6000" cy="11.1700" r="0.3000" />
</g>
<g style="fill:#4D7FC4; fill-opacity:1.0000; stroke:none;">
<circle cx="10.3700" cy="9.5120" r="0.3000" />
</g>
<g style="fill:none;  stroke:#4D7FC4; stroke-width:0.5080; stroke-opacity:1;  stroke-linecap:round; stroke-linejoin:round;">
<path d="M11.5500 6.1900 L11.5500 7.8610 " />
<path d="M11.5500 7.8610 L13.3706 7.8610 " />
<path d="M6.6500 6.1900 L6.6500 7.8610 " />
<path d="M14.9780 5.7290 L16.2120 5.7290 " />
<path d="M14.4250 6.2820 L14.4250 6.8066 " />
<path d="M14.4250 6.2820 L14.9780 5.7290 " />
<path d="M13.3706 7.8610 L14.4250 6.8066 " />
</g>
<g style="fill:none;  stroke:#4D7FC4; stroke-width:0.2540; stroke-opacity:1;  stroke-linecap:round; stroke-linejoin:round;">
<path d="M9.7280 9.6099 L9.7280 10.1301 " />
</g>
<g style="fill:none;  stroke:#4D7FC4; stroke-width:0.1524; stroke-opacity:1;  stroke-linecap:round; stroke-linejoin:round;">
<path d="M8.1000 7.7108 L8.3500 7.4608 " />
</g>
<g style="fill:none;  stroke:#4D7FC4; stroke-width:0.2540; stroke-opacity:1;  stroke-linecap:round; stroke-linejoin:round;">
<path d="M9.6000 9.0334 L9.6000 9.4819 " />
<path d="M9.6000 10.2581 L9.6000 11.1700 " />
<path d="M9.7280 10.1301 L9.6000 10.2581 " />
<path d="M9.6000 7.8700 L9.3500 7.6200 " />
</g>
<g style="fill:none;  stroke:#4D7FC4; stroke-width:0.1524; stroke-opacity:1;  stroke-linecap:round; stroke-linejoin:round;">
<path d="M8.3500 7.4608 L8.3500 6.5150 " />
</g>
<g style="fill:none;  stroke:#4D7FC4; stroke-width:0.2540; stroke-opacity:1;  stroke-linecap:round; stroke-linejoin:round;">
<path d="M8.1000 9.0334 L8.1000 9.2420 " />
<path d="M9.6000 9.4819 L9.7280 9.6099 " />
<path d="M8.1000 9.2420 L7.8300 9.5120 " />
</g>
<g style="fill:none;  stroke:#4D7FC4; stroke-width:0.1524; stroke-opacity:1;  stroke-linecap:round; stroke-linejoin:round;">
<path d="M8.1000 9.0334 L8.1000 7.7108 " />
</g>
<g style="fill:none;  stroke:#4D7FC4; stroke-width:0.2540; stroke-opacity:1;  stroke-linecap:round; stroke-linejoin:round;">
<path d="M9.3500 7.6200 L9.3500 6.5150 " />
<path d="M9.6000 9.0334 L9.6000 7.8700 " />
</g>
<g style="fill:none;  stroke:#4D7FC4; stroke-width:0.1524; stroke-opacity:1;  stroke-linecap:round; stroke-linejoin:round;">
<path d="M9.8500 7.4608 L9.8500 6.5150 " />
</g>
<g style="fill:none;  stroke:#4D7FC4; stroke-width:0.2540; stroke-opacity:1;  stroke-linecap:round; stroke-linejoin:round;">
<path d="M8.8500 7.6200 L8.8500 6.5150 " />
</g>
<g style="fill:none;  stroke:#4D7FC4; stroke-width:0.1524; stroke-opacity:1;  stroke-linecap:round; stroke-linejoin:round;">
<path d="M10.1000 9.0334 L10.1000 7.7108 " />
</g>
<g style="fill:none;  stroke:#4D7FC4; stroke-width:0.2540; stroke-opacity:1;  stroke-linecap:round; stroke-linejoin:round;">
<path d="M8.6000 9.0334 L8.6000 9.4819 " />
<path d="M10.1000 9.2420 L10.3700 9.5120 " />
<path d="M8.4720 9.6099 L8.4720 10.1301 " />
</g>
<g style="fill:none;  stroke:#4D7FC4; stroke-width:0.1524; stroke-opacity:1;  stroke-linecap:round; stroke-linejoin:round;">
<path d="M10.1000 7.7108 L9.8500 7.4608 " />
</g>
<g style="fill:none;  stroke:#4D7FC4; stroke-width:0.2540; stroke-opacity:1;  stroke-linecap:round; stroke-linejoin:round;">
<path d="M8.6000 9.0334 L8.6000 7.8700 " />
<path d="M10.1000 9.0334 L10.1000 9.2420 " />
<path d="M8.4720 10.1301 L8.6000 10.2581 " />
<path d="M8.6000 7.8700 L8.8500 7.6200 " />
<path d="M8.6000 9.4819 L8.4720 9.6099 " />
<path d="M8.6000 10.2581 L8.6000 11.1700 " />
</g>
<g style="fill:#FFFFFF; fill-opacity:1.0000; stroke:none;">
<circle cx="6.6500" cy="7.8610" r="0.1500" />
</g>
<g style="fill:#FFFFFF; fill-opacity:1.0000; stroke:none;">
<circle cx="11.5500" cy="7.8610" r="0.1500" />
</g>
<g style="fill:#FFFFFF; fill-opacity:1.0000; stroke:none;">
<circle cx="7.8300" cy="9.5120" r="0.1500" />
</g>
<g style="fill:#FFFFFF; fill-opacity:1.0000; stroke:none;">
<circle cx="9.6000" cy="11.1700" r="0.1500" />
</g>
<g style="fill:#FFFFFF; fill-opacity:1.0000; stroke:none;">
<circle cx="8.6000" cy="11.1700" r="0.1500" />
</g>
<g style="fill:#FFFFFF; fill-opacity:1.0000; stroke:none;">
<circle cx="10.3700" cy="9.5120" r="0.1500" />
</g>
<g style="fill:#FFFFFF; fill-opacity:1.0000; stroke:none;">
<circle cx="2.1000" cy="14.6000" r="1.1000" />
</g>
<g style="fill:#FFFFFF; fill-opacity:1.0000; stroke:none;">
<circle cx="16.1000" cy="14.6000" r="1.1000" />
</g>
<g style="fill:#FFFFFF; fill-opacity:1.0000; stroke:none;">
<circle cx="16.1000" cy="2.1000" r="1.1000" />
</g>
<g style="fill:#FFFFFF; fill-opacity:1.0000; stroke:none;">
<circle cx="6.2100" cy="5.0700" r="0.3250" />
</g>
<g style="fill:#FFFFFF; fill-opacity:1.0000; stroke:none;">
<circle cx="11.9900" cy="5.0700" r="0.3250" />
</g>
<g style="fill:#808080; fill-opacity:1.0000; stroke:none;">
<circle cx="2.1000" cy="2.1000" r="1.7500" />
</g>
<g style="fill:#808080; fill-opacity:1.0000; stroke:none;">
<circle cx="2.1000" cy="2.1000" r="1.7500" />
<path style="fill:#808080; fill-opacity:1.0000; stroke:none;fill-rule:evenodd;" d="M 7.9000,12.1250 7.8886,12.1824 7.8561,12.2311 7.8074,12.2636 7.7500,12.2750 7.4500,12.2750 7.3926,12.2636 7.3439,12.2311 7.3114,12.1824 7.3000,12.1250 7.3000,10.8750 7.3114,10.8176 7.3439,10.7689 7.3926,10.7364 7.4500,10.7250 7.7500,10.7250 7.8074,10.7364 7.8561,10.7689 7.8886,10.8176 7.9000,10.8750 Z" />
<path style="fill:#808080; fill-opacity:1.0000; stroke:none;fill-rule:evenodd;" d="M 6.3270,10.1760 6.4035,10.1912 6.4684,10.2346 6.5118,10.2995 6.5270,10.3760 6.5270,10.7760 6.5118,10.8525 6.4684,10.9174 6.4035,10.9608 6.3270,10.9760 5.7770,10.9760 5.7005,10.9608 5.6356,10.9174 5.5922,10.8525 5.5770,10.7760 5.5770,10.3760 5.5922,10.2995 5.6356,10.2346 5.7005,10.1912 5.7770,10.1760 Z" />
<path style="fill:#808080; fill-opacity:1.0000; stroke:none;fill-rule:evenodd;" d="M 12.4230,10.1760 12.4995,10.1912 12.5644,10.2346 12.6078,10.2995 12.6230,10.3760 12.6230,10.7760 12.6078,10.8525 12.5644,10.9174 12.4995,10.9608 12.4230,10.9760 11.8730,10.9760 11.7965,10.9608 11.7316,10.9174 11.6882,10.8525 11.6730,10.7760 11.6730,10.3760 11.6882,10.2995 11.7316,10.2346 11.7965,10.1912 11.8730,10.1760 Z" />
<path style="fill:#808080; fill-opacity:1.0000; stroke:none;fill-rule:evenodd;" d="M 13.3500,10.4370 13.3671,10.3509 13.4159,10.2779 13.4889,10.2291 13.5750,10.2120 14.0250,10.2120 14.1111,10.2291 14.1841,10.2779 14.2329,10.3509 14.2500,10.4370 14.2500,11.1870 14.2329,11.2731 14.1841,11.3461 14.1111,11.3949 14.0250,11.4120 13.5750,11.4120 13.4889,11.3949 13.4159,11.3461 13.3671,11.2731 13.3500,11.1870 Z" />
<path style="fill:#808080; fill-opacity:1.0000; stroke:none;fill-rule:evenodd;" d="M 5.5500,7.2400 5.5500,5.7900 6.1500,5.7900 6.1500,7.2400 Z" />
<path style="fill:#808080; fill-opacity:1.0000; stroke:none;fill-rule:evenodd;" d="M 12.0500,7.2400 12.0500,5.7900 12.6500,5.7900 12.6500,7.2400 Z" />
<path style="fill:#808080; fill-opacity:1.0000; stroke:none;fill-rule:evenodd;" d="M 12.0500,7.2400 12.0500,5.7900 12.6500,5.7900 12.6500,7.2400 Z" />
<path style="fill:#808080; fill-opacity:1.0000; stroke:none;fill-rule:evenodd;" d="M 5.5500,7.2400 5.5500,5.7900 6.1500,5.7900 6.1500,7.2400 Z" />
</g>
<g style="fill:none;  stroke:#808080; stroke-width:1.0000; stroke-opacity:1;  stroke-linecap:round; stroke-linejoin:round;">
<path d="M4.7800 1.1200 L4.7800 1.7200 " />
<path d="M4.7800 5.0500 L4.7800 6.1500 " />
<path d="M13.4200 1.1200 L13.4200 1.7200 " />
<path d="M13.4200 5.0500 L13.4200 6.1500 " />
<path style="fill:#808080; fill-opacity:1.0000; stroke:none;fill-rule:evenodd;" d="M 9.2500,9.2334 9.2443,9.2621 9.2280,9.2864 9.2037,9.3027 9.1750,9.3084 9.0250,9.3084 8.9963,9.3027 8.9720,9.2864 8.9557,9.2621 8.9500,9.2334 8.9500,8.8334 8.9557,8.8047 8.9720,8.7804 8.9963,8.7641 9.0250,8.7584 9.1750,8.7584 9.2037,8.7641 9.2280,8.7804 9.2443,8.8047 9.2500,8.8334 Z" />
<path style="fill:#808080; fill-opacity:1.0000; stroke:none;fill-rule:evenodd;" d="M 9.2500,8.4634 9.2443,8.4921 9.2280,8.5164 9.2037,8.5327 9.1750,8.5384 9.0250,8.5384 8.9963,8.5327 8.9720,8.5164 8.9557,8.4921 8.9500,8.4634 8.9500,8.0634 8.9557,8.0347 8.9720,8.0104 8.9963,7.9941 9.0250,7.9884 9.1750,7.9884 9.2037,7.9941 9.2280,8.0104 9.2443,8.0347 9.2500,8.0634 Z" />
</g>
<g style="fill:#808080; fill-opacity:1.0000; stroke:none;">
<circle cx="9.1000" cy="9.8700" r="0.3000" />
</g>
<g style="fill:none;  stroke:#808080; stroke-width:0.2540; stroke-opacity:1;  stroke-linecap:round; stroke-linejoin:round;">
<path d="M9.1000 8.2634 L9.1000 9.8700 " />
<path style="fill:#808080; fill-opacity:1.0000; stroke:none;fill-rule:evenodd;" d="M 4.6128,0.3222 4.6345,0.3745 4.6128,0.4268 4.5790,0.4449 4.5793,0.4458 4.5758,0.4469 4.4484,0.4997 4.3338,0.5763 4.3338,0.5763 4.2363,0.6738 4.2363,0.6738 4.1597,0.7884 4.1069,0.9158 4.1069,0.9158 4.0800,1.0511 4.0800,1.1700 4.4800,1.1700 4.4800,1.6700 4.0800,1.6700 4.0800,1.7889 4.1069,1.9242 4.1069,1.9242 4.1597,2.0516 4.2363,2.1662 4.3338,2.2637 4.4484,2.3403 4.5300,2.3741 4.5300,2.3741 4.5300,1.8870 4.5399,1.9042 4.5958,1.9601 4.6642,1.9996 4.7405,2.0200 4.8195,2.0200 4.8958,1.9996 4.9642,1.9601 5.0201,1.9042 5.0300,1.8870 5.0300,2.3741 5.1116,2.3403 5.2262,2.2637 5.2262,2.2637 5.3237,2.1662 5.3237,2.1662 5.4003,2.0516 5.4531,1.9242 5.4531,1.9242 5.4800,1.7889 5.4800,1.6700 5.0800,1.6700 5.0800,1.1700 5.4800,1.1700 5.4800,1.0511 5.4531,0.9158 5.4531,0.9158 5.4003,0.7884 5.3237,0.6738 5.2262,0.5763 5.1116,0.4997 4.9842,0.4469 4.9807,0.4458 4.9811,0.4444 4.9380,0.4156 4.9269,0.3601 4.9584,0.3130 4.9995,0.3005 13.2005,0.3005 13.2528,0.3222 13.2745,0.3745 13.2528,0.4268 13.2190,0.4449 13.2193,0.4458 13.2158,0.4469 13.0884,0.4997 12.9738,0.5763 12.9738,0.5763 12.8763,0.6738 12.8763,0.6738 12.7997,0.7884 12.7469,0.9158 12.7469,0.9158 12.7200,1.0511 12.7200,1.1700 13.1200,1.1700 13.1200,1.6700 12.7200,1.6700 12.7200,1.7889 12.7469,1.9242 12.7469,1.9242 12.7997,2.0516 12.8763,2.1662 12.9738,2.2637 13.0884,2.3403 13.1700,2.3741 13.1700,2.3741 13.1700,1.8870 13.1799,1.9042 13.2358,1.9601 13.3042,1.9996 13.3805,2.0200 13.4595,2.0200 13.5358,1.9996 13.6042,1.9601 13.6601,1.9042 13.6700,1.8870 13.6700,2.3741 13.7516,2.3403 13.8662,2.2637 13.8662,2.2637 13.9637,2.1662 13.9637,2.1662 14.0140,2.0910 14.0611,2.0596 14.1166,2.0706 14.1481,2.1177 14.1495,2.1321 14.1495,2.2278 14.1829,2.4813 14.2490,2.7283 14.2491,2.7283 14.3469,2.9645 14.3469,2.9645 14.4747,3.1860 14.4747,3.1860 14.6304,3.3888 14.8112,3.5696 15.0140,3.7253 15.2355,3.8531 15.4717,3.9509 15.7187,4.0171 15.9722,4.0505 15.9722,4.0505 16.2278,4.0505 16.2278,4.0505 16.4813,4.0171 16.7283,3.9509 16.9645,3.8531 17.1860,3.7253 17.3888,3.5696 17.5696,3.3888 17.7253,3.1860 17.7614,3.1233 17.8063,3.0889 17.8625,3.0963 17.8970,3.1412 17.8995,3.1603 17.8995,13.5397 17.8778,13.5920 17.8255,13.6137 17.7732,13.5920 17.7614,13.5767 17.7253,13.5140 17.7253,13.5140 17.5696,13.3112 17.3888,13.1304 17.1860,12.9747 17.1860,12.9747 16.9645,12.8469 16.9645,12.8469 16.7283,12.7491 16.7283,12.7490 16.7283,12.7490 16.6851,12.7375 16.6402,12.7030 16.6328,12.6468 16.6673,12.6019 16.7043,12.5920 16.7423,12.5920 16.7606,12.5871 16.8335,12.5676 16.8335,12.5676 16.8579,12.5610 16.8579,12.5610 16.8579,12.5610 16.9616,12.5012 17.0462,12.4166 17.0462,12.4166 17.3791,12.0837 17.3791,12.0837 17.4637,11.9991 17.5235,11.8954 17.5334,11.8584 17.5545,11.7798 17.5545,11.6602 17.5545,11.6556 17.5545,11.6556 17.5545,11.5899 17.5762,11.5376 17.5782,11.5355 17.5782,11.5355 17.6735,11.4402 17.7347,11.3201 17.7505,11.2205 17.7505,10.4035 17.7490,10.3938 17.7347,10.3039 17.7347,10.3039 17.7106,10.2565 17.6735,10.1838 17.5782,10.0885 17.5762,10.0864 17.5545,10.0341 17.5545,9.4828 17.5545,9.4828 17.5545,9.3572 17.5530,9.3516 17.5235,9.2416 17.5175,9.2312 17.4926,9.1881 17.4926,9.1881 17.4637,9.1379 17.3765,9.0507 17.3765,9.0507 17.3092,8.9834 17.2875,8.9311 17.2875,8.0997 17.2875,8.0997 17.2846,8.0693 17.2794,8.0542 17.2398,7.9411 17.2398,7.9411 17.1592,7.8319 17.1591,7.8318 17.0499,7.7512 17.0499,7.7512 16.9217,7.7064 16.9217,7.7064 16.9217,7.7064 16.9217,7.7064 16.8913,7.7035 15.5327,7.7035 15.5023,7.7064 15.5023,7.7064 15.5023,7.7064 15.3741,7.7512 15.3741,7.7512 15.2649,7.8318 15.2648,7.8319 15.1842,7.9411 15.1842,7.9411 15.1394,8.0693 15.1394,8.0693 15.1394,8.0693 15.1365,8.0997 15.1365,8.9583 15.1394,8.9887 15.1394,8.9887 15.1394,8.9887 15.1842,9.1169 15.1842,9.1169 15.2648,9.2261 15.2649,9.2262 15.3741,9.3068 15.3741,9.3068 15.5023,9.3516 15.5023,9.3516 15.5327,9.3545 16.3641,9.3545 16.4164,9.3762 16.6238,9.5836 16.6455,9.6359 16.6455,10.0341 16.6238,10.0864 16.5265,10.1838 16.5265,10.1838 16.4653,10.3039 16.4653,10.3039 16.4495,10.4035 16.4495,11.2205 16.4653,11.3201 16.4653,11.3201 16.5265,11.4402 16.5794,11.4932 16.5794,11.4932 16.5978,11.5376 16.6011,11.5455 16.5794,11.5978 16.5159,11.6613 16.4636,11.6830 11.1745,11.6830 11.1222,11.6613 11.1005,11.6090 11.1005,10.8417 11.1005,10.8417 11.0906,10.7736 11.0392,10.6685 10.9565,10.5858 10.9565,10.5858 10.8514,10.5344 10.7833,10.5245 10.7833,10.5245 10.4167,10.5245 10.4167,10.5245 10.3486,10.5344 10.3486,10.5344 10.2435,10.5858 10.1608,10.6685 10.1602,10.6693 10.1596,10.6697 10.1565,10.6729 10.1557,10.6721 10.1122,10.6993 10.0570,10.6865 10.0475,10.6784 10.0407,10.6716 10.0392,10.6685 9.9565,10.5858 9.9547,10.5849 9.9490,10.5791 9.9404,10.5583 9.9285,10.5392 9.9275,10.5270 9.9275,10.4244 9.9492,10.3721 9.9901,10.3312 10.0332,10.2565 10.0555,10.1732 10.0555,10.1732 10.0555,10.0365 10.0772,9.9842 10.1295,9.9625 10.1665,9.9724 10.1768,9.9784 10.3041,10.0125 10.3041,10.0125 10.3041,10.0125 10.4359,10.0125 10.4359,10.0125 10.5632,9.9784 10.6773,9.9125 10.7705,9.8193 10.8364,9.7052 10.8705,9.5779 10.8705,9.5779 10.8705,9.4461 10.8705,9.4461 10.8685,9.4388 10.8364,9.3188 10.7705,9.2047 10.6773,9.1115 10.5632,9.0456 10.5632,9.0456 10.5053,9.0301 10.4604,8.9956 10.4505,8.9586 10.4505,8.8063 10.4505,8.8063 10.4399,8.7527 10.4509,8.6972 10.4980,8.6657 10.5535,8.6768 10.5765,8.7013 10.5879,8.7211 11.0549,9.1881 11.0837,9.2047 11.1296,9.2312 11.1881,9.2469 11.2129,9.2535 11.2129,9.2535 11.2129,9.2535 11.2991,9.2535 11.4431,9.2535 11.4955,9.2752 11.5091,9.2939 11.5449,9.3643 11.5450,9.3643 11.6347,9.4540 11.7477,9.5116 11.8415,9.5265 12.4545,9.5265 12.4545,9.5265 12.5483,9.5116 12.5483,9.5116 12.6049,9.4828 12.6613,9.4540 12.7510,9.3643 12.8086,9.2513 12.8235,9.1575 12.8235,8.6945 12.8235,8.6943 12.8086,8.6007 12.8086,8.6007 12.7788,8.5421 12.7510,8.4877 12.7052,8.4418 12.6835,8.3895 12.7052,8.3372 12.7575,8.3155 13.3063,8.3155 13.3063,8.3155 13.3108,8.3155 13.4305,8.3155 13.4487,8.3106 13.5217,8.2911 13.5217,8.2911 13.5461,8.2845 13.5461,8.2845 13.5461,8.2845 13.6497,8.2247 13.7343,8.1401 13.7343,8.1401 14.7041,7.1703 14.7041,7.1703 14.7887,7.0857 14.8485,6.9821 14.8551,6.9577 14.8795,6.8665 14.8795,6.7468 14.8795,6.7423 14.8795,6.7423 14.8795,6.5009 14.9012,6.4486 15.0617,6.2881 15.1140,6.2664 15.1664,6.2881 15.1814,6.3121 15.1816,6.3120 15.1828,6.3143 15.1839,6.3160 15.1842,6.3169 15.2648,6.4261 15.2649,6.4262 15.3741,6.5068 15.3741,6.5068 15.5023,6.5516 15.5023,6.5516 15.5327,6.5545 15.5327,6.5545 16.8913,6.5545 16.8913,6.5545 16.9217,6.5516 17.0499,6.5068 17.1592,6.4261 17.2398,6.3169 17.2846,6.1887 17.2875,6.1583 17.2875,5.2997 17.2846,5.2693 17.2691,5.2249 17.2398,5.1411 17.2398,5.1411 17.1592,5.0319 17.1591,5.0318 17.0499,4.9512 17.0499,4.9512 16.9217,4.9064 16.9217,4.9064 16.9217,4.9064 16.9217,4.9064 16.8913,4.9035 15.5327,4.9035 15.5023,4.9064 15.5023,4.9064 15.5023,4.9064 15.3741,4.9512 15.3741,4.9512 15.2649,5.0318 15.2648,5.0319 15.1842,5.1411 15.1842,5.1411 15.1549,5.2249 15.1171,5.2672 15.0850,5.2745 14.9182,5.2745 14.8604,5.2900 14.8026,5.3055 14.8026,5.3055 14.6989,5.3653 14.6143,5.4499 14.2195,5.8448 14.1671,5.8665 14.1273,5.8500 13.7200,5.8500 13.7200,5.3500 14.1200,5.3500 14.1200,4.9811 14.0931,4.8458 14.0931,4.8458 14.0403,4.7184 13.9637,4.6038 13.8662,4.5063 13.7516,4.4297 13.6700,4.3959 13.6700,4.8830 13.6601,4.8658 13.6042,4.8099 13.5358,4.7704 13.4595,4.7500 13.3805,4.7500 13.3042,4.7704 13.2358,4.8099 13.1799,4.8658 13.1700,4.8830 13.1700,4.3959 13.1700,4.3959 13.0884,4.4297 12.9738,4.5063 12.9738,4.5063 12.8763,4.6038 12.8763,4.6038 12.7997,4.7184 12.7469,4.8458 12.7469,4.8458 12.7200,4.9811 12.7200,5.3500 13.1200,5.3500 13.1200,5.8500 12.7200,5.8500 12.7200,6.2189 12.7469,6.3542 12.7469,6.3542 12.7997,6.4816 12.8763,6.5962 12.9738,6.6937 13.0884,6.7703 13.1700,6.8041 13.1700,6.8041 13.1700,6.3170 13.1799,6.3342 13.2358,6.3901 13.3042,6.4296 13.3805,6.4500 13.4595,6.4500 13.5358,6.4296 13.6042,6.3901 13.6601,6.3342 13.6700,6.3170 13.6700,6.8092 13.6953,6.8471 13.6842,6.9026 13.6750,6.9138 13.2041,7.3848 13.1517,7.4065 12.1115,7.4065 12.0592,7.3848 12.0375,7.3325 12.0389,7.3181 12.0505,7.2597 12.0505,5.8229 12.0505,5.7703 12.0405,5.7200 12.0402,5.7164 12.0474,5.6926 12.0523,5.6681 12.0556,5.6657 12.0567,5.6622 12.0717,5.6542 12.0947,5.6378 12.2121,5.6063 12.3434,5.5305 12.4505,5.4234 12.5263,5.2921 12.5655,5.1458 12.5655,5.1458 12.5655,4.9942 12.5655,4.9942 12.5263,4.8479 12.5263,4.8479 12.4505,4.7166 12.3434,4.6095 12.3335,4.6038 12.2121,4.5337 12.2121,4.5337 12.0658,4.4945 12.0658,4.4945 11.9142,4.4945 11.9142,4.4945 11.7679,4.5337 11.7679,4.5337 11.6366,4.6095 11.5295,4.7166 11.4537,4.8479 11.4537,4.8479 11.4145,4.9942 11.4145,5.1458 11.4537,5.2921 11.4537,5.2921 11.4960,5.3653 11.5295,5.4234 11.5693,5.4632 11.5910,5.5155 11.5693,5.5678 11.5170,5.5895 11.2303,5.5895 11.1913,5.5973 11.1718,5.6011 11.1661,5.6049 11.1106,5.6160 11.0839,5.6049 11.0782,5.6011 11.0197,5.5895 10.6803,5.5895 10.6218,5.6011 10.6218,5.6011 10.6146,5.6026 10.6138,5.5984 10.5862,5.5984 10.5854,5.6026 10.5782,5.6011 10.5197,5.5895 10.1803,5.5895 10.1218,5.6011 10.1218,5.6011 10.1146,5.6026 10.1138,5.5984 10.0862,5.5984 10.0854,5.6026 10.0782,5.6011 10.0197,5.5895 9.6803,5.5895 9.6218,5.6011 9.6218,5.6011 9.6146,5.6026 9.6138,5.5984 9.5862,5.5984 9.5854,5.6026 9.5782,5.6011 9.5197,5.5895 9.1803,5.5895 9.1218,5.6011 9.1218,5.6011 9.1146,5.6026 9.1138,5.5984 9.0862,5.5984 9.0854,5.6026 9.0782,5.6011 9.0197,5.5895 8.6803,5.5895 8.6218,5.6011 8.6218,5.6011 8.6146,5.6026 8.6138,5.5984 8.5862,5.5984 8.5854,5.6026 8.5782,5.6011 8.5197,5.5895 8.1803,5.5895 8.1218,5.6011 8.1218,5.6011 8.1146,5.6026 8.1138,5.5984 8.0862,5.5984 8.0854,5.6026 8.0782,5.6011 8.0197,5.5895 7.6803,5.5895 7.6218,5.6011 7.6218,5.6011 7.6146,5.6026 7.6138,5.5984 7.5862,5.5984 7.5854,5.6026 7.5782,5.6011 7.5197,5.5895 7.1803,5.5895 7.1413,5.5973 7.1218,5.6011 7.1161,5.6049 7.0606,5.6160 7.0339,5.6049 7.0282,5.6011 6.9697,5.5895 6.9697,5.5895 6.6830,5.5895 6.6307,5.5678 6.6090,5.5155 6.6307,5.4632 6.6705,5.4234 6.7463,5.2921 6.7855,5.1458 6.7855,5.1458 6.7855,4.9942 6.7855,4.9942 6.7463,4.8479 6.7463,4.8479 6.6705,4.7166 6.5634,4.6095 6.5535,4.6038 6.4321,4.5337 6.4321,4.5337 6.2858,4.4945 6.2858,4.4945 6.1342,4.4945 6.1342,4.4945 5.9879,4.5337 5.9879,4.5337 5.8566,4.6095 5.7495,4.7166 5.6737,4.8479 5.6737,4.8479 5.6345,4.9942 5.6345,5.1458 5.6737,5.2921 5.6737,5.2921 5.7160,5.3653 5.7495,5.4234 5.8566,5.5305 5.9879,5.6063 6.1053,5.6378 6.1503,5.6722 6.1588,5.7237 6.1495,5.7703 6.1495,7.2597 6.1611,7.3182 6.1830,7.3510 6.1955,7.3921 6.1955,7.6274 6.1856,7.6644 6.1836,7.6678 6.1836,7.6678 6.1495,7.7951 6.1495,7.9269 6.1836,8.0542 6.1836,8.0542 6.2495,8.1683 6.2804,8.1992 6.3020,8.2515 6.2804,8.3038 6.2280,8.3255 5.7455,8.3255 5.6517,8.3404 5.6517,8.3404 5.5387,8.3979 5.4490,8.4877 5.3914,8.6007 5.3765,8.6945 5.3765,9.1575 5.3914,9.2513 5.3914,9.2513 5.4387,9.3442 5.4489,9.3643 5.5387,9.4540 5.6517,9.5116 5.7455,9.5265 6.3585,9.5265 6.3585,9.5265 6.4523,9.5116 6.4523,9.5116 6.5089,9.4828 6.5653,9.4540 6.6551,9.3643 6.6653,9.3442 6.6909,9.2939 6.7340,9.2571 6.7569,9.2535 6.9371,9.2535 6.9371,9.2535 6.9957,9.2378 7.0204,9.2312 7.0204,9.2312 7.0204,9.2312 7.0951,9.1881 7.6401,8.6431 7.6611,8.6067 7.6746,8.5964 7.6840,8.5822 7.6962,8.5798 7.7060,8.5722 7.7229,8.5745 7.7396,8.5711 7.7499,8.5780 7.7621,8.5796 7.7867,8.6026 7.7898,8.6073 7.8009,8.6628 7.7898,8.6895 7.7655,8.7259 7.7495,8.8063 7.7495,8.9586 7.7278,9.0110 7.6947,9.0301 7.6368,9.0456 7.6368,9.0456 7.5227,9.1115 7.4295,9.2047 7.3636,9.3188 7.3636,9.3188 7.3295,9.4461 7.3295,9.5779 7.3636,9.7052 7.3636,9.7052 7.3636,9.7052 7.4295,9.8193 7.5227,9.9125 7.6368,9.9784 7.7641,10.0125 7.7641,10.0125 7.7641,10.0125 7.8959,10.0125 7.8959,10.0125 8.0232,9.9784 8.0335,9.9724 8.0897,9.9650 8.1346,9.9995 8.1445,10.0365 8.1445,10.1732 8.1668,10.2565 8.2099,10.3312 8.2508,10.3721 8.2725,10.4244 8.2725,10.5270 8.2508,10.5793 8.2453,10.5840 8.1608,10.6685 8.1094,10.7736 8.1094,10.7736 8.0995,10.8417 8.0995,12.1583 8.1094,12.2264 8.1094,12.2264 8.1608,12.3315 8.1608,12.3315 8.2435,12.4142 8.3486,12.4656 8.4167,12.4755 8.4167,12.4755 8.7833,12.4755 8.7833,12.4755 8.8514,12.4656 8.9565,12.4142 9.0392,12.3315 9.0392,12.3315 9.0398,12.3307 9.0404,12.3303 9.0435,12.3271 9.0443,12.3279 9.0878,12.3007 9.1430,12.3134 9.1602,12.3307 9.1608,12.3315 9.1608,12.3315 9.2435,12.4142 9.3486,12.4656 9.4167,12.4755 9.4167,12.4755 9.7833,12.4755 9.7833,12.4755 9.8514,12.4656 9.9565,12.4142 10.0392,12.3315 10.0392,12.3315 10.0398,12.3307 10.0404,12.3303 10.0435,12.3271 10.0443,12.3279 10.0878,12.3007 10.1430,12.3134 10.1530,12.3220 10.1594,12.3286 10.1608,12.3315 10.2166,12.3873 10.2170,12.3877 10.2172,12.3881 10.2281,12.4023 10.2363,12.4166 10.2363,12.4166 10.2363,12.4166 10.3209,12.5012 10.4246,12.5610 10.5402,12.5920 15.4957,12.5920 15.5480,12.6137 15.5697,12.6660 15.5480,12.7183 15.5149,12.7375 15.4717,12.7490 15.4717,12.7491 15.2355,12.8469 15.2355,12.8469 15.0140,12.9747 15.0140,12.9747 14.8112,13.1304 14.6304,13.3112 14.4747,13.5140 14.4747,13.5140 14.3469,13.7355 14.3469,13.7355 14.2491,13.9717 14.2490,13.9717 14.1829,14.2187 14.1495,14.4722 14.1495,14.7278 14.1829,14.9813 14.2490,15.2283 14.2491,15.2283 14.3469,15.4645 14.3469,15.4645 14.4747,15.6860 14.4747,15.6860 14.5166,15.7405 14.6304,15.8888 14.8112,16.0696 14.8995,16.1373 15.0140,16.2253 15.0140,16.2253 15.0767,16.2614 15.1111,16.3063 15.1037,16.3625 15.0588,16.3970 15.0397,16.3995 12.6801,16.3995 12.6278,16.3778 12.6061,16.3255 12.6206,16.2816 12.6528,16.2379 12.6976,16.1097 12.6976,16.1097 12.6976,16.1097 12.7005,16.0793 12.7005,14.6707 12.6976,14.6403 12.6528,14.5121 12.6528,14.5121 12.5722,14.4029 12.5721,14.4028 12.4629,14.3222 12.4629,14.3222 12.3347,14.2774 12.3347,14.2774 12.3347,14.2774 12.3347,14.2774 12.3043,14.2745 11.4957,14.2745 11.4653,14.2774 11.4653,14.2774 11.4653,14.2774 11.3371,14.3222 11.3371,14.3222 11.2279,14.4028 11.2278,14.4029 11.1472,14.5121 11.1472,14.5121 11.1024,14.6403 11.1024,14.6403 11.1024,14.6403 11.0995,14.6707 11.0995,16.0793 11.1024,16.1097 11.1024,16.1097 11.1024,16.1097 11.1472,16.2379 11.1794,16.2816 11.1931,16.3365 11.1638,16.3850 11.1199,16.3995 7.0801,16.3995 7.0278,16.3778 7.0061,16.3255 7.0206,16.2816 7.0528,16.2379 7.0976,16.1097 7.0976,16.1097 7.0976,16.1097 7.1005,16.0793 7.1005,14.6707 7.0976,14.6403 7.0528,14.5121 7.0528,14.5121 6.9722,14.4029 6.9721,14.4028 6.8629,14.3222 6.8629,14.3222 6.7347,14.2774 6.7347,14.2774 6.7347,14.2774 6.7347,14.2774 6.7043,14.2745 5.8957,14.2745 5.8653,14.2774 5.8653,14.2774 5.8653,14.2774 5.7371,14.3222 5.7371,14.3222 5.6279,14.4028 5.6278,14.4029 5.5472,14.5121 5.5472,14.5121 5.5024,14.6403 5.5024,14.6403 5.5024,14.6403 5.4995,14.6707 5.4995,16.0793 5.5024,16.1097 5.5024,16.1097 5.5024,16.1097 5.5472,16.2379 5.5794,16.2816 5.5931,16.3365 5.5638,16.3850 5.5199,16.3995 3.1603,16.3995 3.1080,16.3778 3.0863,16.3255 3.1080,16.2732 3.1233,16.2614 3.1641,16.2379 3.1860,16.2253 3.3888,16.0696 3.5696,15.8888 3.7253,15.6860 3.8531,15.4645 3.9509,15.2283 4.0171,14.9813 4.0505,14.7278 4.0505,14.4722 4.0171,14.2187 3.9509,13.9717 3.8531,13.7355 3.7253,13.5140 3.5696,13.3112 3.3888,13.1304 3.1860,12.9747 3.1860,12.9747 2.9645,12.8469 2.9645,12.8469 2.7283,12.7491 2.7283,12.7490 2.7283,12.7490 2.6851,12.7375 2.4813,12.6829 2.2946,12.6583 2.2278,12.6495 1.9722,12.6495 1.9132,12.6573 1.7187,12.6829 1.4717,12.7490 1.4717,12.7491 1.2355,12.8469 1.2355,12.8469 1.0140,12.9747 1.0140,12.9747 0.8112,13.1304 0.6304,13.3112 0.4747,13.5140 0.4747,13.5140 0.4386,13.5767 0.3937,13.6111 0.3375,13.6037 0.3030,13.5588 0.3005,13.5397 0.3005,4.9811 4.0800,4.9811 4.0800,5.3500 4.4800,5.3500 4.4800,5.8500 4.0800,5.8500 4.0800,6.2189 4.1069,6.3542 4.1069,6.3542 4.1597,6.4816 4.2363,6.5962 4.3338,6.6937 4.4484,6.7703 4.5300,6.8041 4.5300,6.8041 4.5300,6.3170 4.5399,6.3342 4.5958,6.3901 4.6642,6.4296 4.7405,6.4500 4.8195,6.4500 4.8958,6.4296 4.9642,6.3901 5.0201,6.3342 5.0300,6.3170 5.0300,6.8041 5.1116,6.7703 5.2262,6.6937 5.2262,6.6937 5.3237,6.5962 5.3237,6.5962 5.4003,6.4816 5.4531,6.3542 5.4531,6.3542 5.4800,6.2189 5.4800,5.8500 5.0800,5.8500 5.0800,5.3500 5.4800,5.3500 5.4800,4.9811 5.4531,4.8458 5.4531,4.8458 5.4003,4.7184 5.3237,4.6038 5.2262,4.5063 5.1116,4.4297 5.0300,4.3959 5.0300,4.8830 5.0201,4.8658 4.9642,4.8099 4.8958,4.7704 4.8195,4.7500 4.7405,4.7500 4.6642,4.7704 4.5958,4.8099 4.5399,4.8658 4.5300,4.8830 4.5300,4.3959 4.5300,4.3959 4.4484,4.4297 4.3338,4.5063 4.3338,4.5063 4.2363,4.6038 4.2363,4.6038 4.1597,4.7184 4.1069,4.8458 4.1069,4.8458 4.0800,4.9811 0.3005,4.9811 0.3005,2.1024 0.3007,2.0976 0.3156,1.8700 0.3168,1.8604 0.3609,1.6390 0.3634,1.6297 0.3682,1.6156 0.4359,1.4159 0.4396,1.4070 0.5394,1.2046 0.5443,1.1962 0.5618,1.1700 0.6697,1.0086 0.6755,1.0009 0.8244,0.8312 0.8312,0.8244 1.0009,0.6755 1.0086,0.6697 1.1962,0.5443 1.2046,0.5394 1.4070,0.4396 1.4159,0.4359 1.6297,0.3634 1.6390,0.3609 1.8604,0.3168 1.8700,0.3156 2.0976,0.3007 2.1024,0.3005 2.1399,0.3005 4.5605,0.3005 Z" />
<path style="fill:#808080; fill-opacity:1.0000; stroke:none;fill-rule:evenodd;" d="M 9.1523,7.8855 9.2304,7.9636 9.2521,8.0159 9.2507,8.0303 9.2495,8.0363 9.2495,8.4905 9.2655,8.5709 9.2669,8.5742 9.2725,8.6025 9.2725,8.6943 9.2669,8.7226 9.2655,8.7259 9.2495,8.8063 9.2495,9.2605 9.2655,9.3409 9.2669,9.3442 9.2725,9.3725 9.2725,9.5250 9.2948,9.6083 9.3379,9.6830 9.3788,9.7239 9.4005,9.7762 9.4005,9.9638 9.3788,10.0161 9.3379,10.0570 9.2948,10.1317 9.2725,10.2150 9.2725,10.5270 9.2510,10.5791 9.2453,10.5849 9.2435,10.5858 9.1608,10.6685 9.1593,10.6716 9.1525,10.6784 9.1315,10.6872 9.1122,10.6993 9.1061,10.6979 9.1003,10.7003 9.0792,10.6917 9.0570,10.6865 9.0503,10.6799 9.0479,10.6789 9.0469,10.6764 9.0398,10.6693 9.0392,10.6685 8.9521,10.5815 8.9538,10.5798 8.9285,10.5392 8.9275,10.5270 8.9275,10.2150 8.9275,10.2150 8.9052,10.1317 8.8794,10.0870 8.8621,10.0570 8.8212,10.0161 8.7995,9.9638 8.7995,9.7762 8.8212,9.7239 8.8398,9.7052 8.8621,9.6830 8.9052,9.6083 8.9275,9.5250 8.9275,9.5250 8.9275,9.3726 8.9331,9.3442 8.9345,9.3409 8.9345,9.3409 8.9345,9.3409 8.9505,9.2605 8.9505,8.8063 8.9345,8.7259 8.9345,8.7259 8.9331,8.7226 8.9275,8.6943 8.9275,8.6025 8.9331,8.5742 8.9345,8.5709 8.9345,8.5709 8.9345,8.5709 8.9505,8.4905 8.9505,8.0363 8.9493,8.0303 8.9604,7.9748 8.9696,7.9636 9.0477,7.8855 9.1000,7.8638 Z" />
<path style="fill:#808080; fill-opacity:1.0000; stroke:none;fill-rule:evenodd;" d="M 15.0920,0.3222 15.1137,0.3745 15.0920,0.4268 15.0767,0.4386 15.0140,0.4747 15.0140,0.4747 14.8112,0.6304 14.6304,0.8112 14.4747,1.0140 14.4747,1.0140 14.3469,1.2355 14.3469,1.2355 14.2491,1.4717 14.2490,1.4717 14.2106,1.6152 14.1761,1.6601 14.1391,1.6700 13.7200,1.6700 13.7200,1.1700 14.1200,1.1700 14.1200,1.0511 14.0931,0.9158 14.0931,0.9158 14.0403,0.7884 13.9637,0.6738 13.8662,0.5763 13.7516,0.4997 13.6242,0.4469 13.6207,0.4458 13.6211,0.4444 13.5780,0.4156 13.5669,0.3601 13.5984,0.3130 13.6395,0.3005 15.0397,0.3005 Z" />
</g>
<g style="fill:#FFFFFF; fill-opacity:1.0000; stroke:none;">
<circle cx="9.1000" cy="9.8700" r="0.1500" />
</g>
<g style="fill:#FFFFFF; fill-opacity:1.0000; stroke:none;">
<circle cx="2.1000" cy="2.1000" r="1.1000" />
</g>
<g style="fill:none;  stroke:#FFFFFF; stroke-width:0.6000; stroke-opacity:1;  stroke-linecap:round; stroke-linejoin:round;">
<path d="M4.7800 1.1200 L4.7800 1.7200 " />
<path d="M4.7800 5.0500 L4.7800 6.1500 " />
<path d="M13.4200 1.1200 L13.4200 1.7200 " />
<path d="M13.4200 5.0500 L13.4200 6.1500 " />
</g>
<g style="fill:#000000; fill-opacity:1.0000;stroke:#000000; stroke-opacity:1.0000; stroke-linecap:round; stroke-linejoin:round;" transform="translate(0 0) scale(1 1)">
<path style="fill:#B8BB26; fill-opacity:1.0000; stroke:none;fill-rule:evenodd;" d="M 6.3270,8.5260 6.4035,8.5412 6.4684,8.5846 6.5118,8.6495 6.5270,8.7260 6.5270,9.1260 6.5118,9.2025 6.4684,9.2674 6.4035,9.3108 6.3270,9.3260 5.7770,9.3260 5.7005,9.3108 5.6356,9.2674 5.5922,9.2025 5.5770,9.1260 5.5770,8.7260 5.5922,8.6495 5.6356,8.5846 5.7005,8.5412 5.7770,8.5260 Z" />
<path style="fill:#B8BB26; fill-opacity:1.0000; stroke:none;fill-rule:evenodd;" d="M 12.4230,8.5260 12.4995,8.5412 12.5644,8.5846 12.6078,8.6495 12.6230,8.7260 12.6230,9.1260 12.6078,9.2025 12.5644,9.2674 12.4995,9.3108 12.4230,9.3260 11.8730,9.3260 11.7965,9.3108 11.7316,9.2674 11.6882,9.2025 11.6730,9.1260 11.6730,8.7260 11.6882,8.6495 11.7316,8.5846 11.7965,8.5412 11.8730,8.5260 Z" />
<path style="fill:#B8BB26; fill-opacity:1.0000; stroke:none;fill-rule:evenodd;" d="M 7.7000,7.2400 7.7000,5.7900 8.0000,5.7900 8.0000,7.2400 Z" />
<path style="fill:#B8BB26; fill-opacity:1.0000; stroke:none;fill-rule:evenodd;" d="M 10.7000,7.2400 10.7000,5.7900 11.0000,5.7900 11.0000,7.2400 Z" />
</g>
<g style="fill:none;  stroke:#B8BB26; stroke-width:0.2540; stroke-opacity:1;  stroke-linecap:round; stroke-linejoin:round;">
<path d="M7.3780 8.4420 L6.8940 8.9260 " />
<path d="M7.8500 6.5150 L7.8500 7.3892 " />
<path d="M7.3780 7.8612 L7.3780 8.4420 " />
<path d="M7.8500 7.3892 L7.3780 7.8612 " />
<path d="M6.8940 8.9260 L6.0520 8.9260 " />
<path d="M12.1480 8.9260 L11.2560 8.9260 " />
<path d="M11.2560 8.9260 L10.8500 8.5200 " />
<path d="M10.8500 8.5200 L10.8500 6.5150 " />
</g>
<g style="fill:#000000; fill-opacity:1.0000;stroke:#000000; stroke-opacity:1.0000; stroke-linecap:round; stroke-linejoin:round;" transform="translate(0 0) scale(1 1)">
<path style="fill:#FABD2F; fill-opacity:1.0000; stroke:none;fill-rule:evenodd;" d="M 10.9000,12.1250 10.8886,12.1824 10.8561,12.2311 10.8074,12.2636 10.7500,12.2750 10.4500,12.2750 10.3926,12.2636 10.3439,12.2311 10.3114,12.1824 10.3000,12.1250 10.3000,10.8750 10.3114,10.8176 10.3439,10.7689 10.3926,10.7364 10.4500,10.7250 10.7500,10.7250 10.8074,10.7364 10.8561,10.7689 10.8886,10.8176 10.9000,10.8750 Z" />
<path style="fill:#FABD2F; fill-opacity:1.0000; stroke:none;fill-rule:evenodd;" d="M 16.6500,10.4370 16.6671,10.3509 16.7159,10.2779 16.7889,10.2291 16.8750,10.2120 17.3250,10.2120 17.4111,10.2291 17.4841,10.2779 17.5329,10.3509 17.5500,10.4370 17.5500,11.1870 17.5329,11.2731 17.4841,11.3461 17.4111,11.3949 17.3250,11.4120 16.8750,11.4120 16.7889,11.3949 16.7159,11.3461 16.6671,11.2731 16.6500,11.1870 Z" />
<path style="fill:#FABD2F; fill-opacity:1.0000; stroke:none;fill-rule:evenodd;" d="M 16.8370,7.9040 16.9327,7.9230 17.0138,7.9772 17.0680,8.0583 17.0870,8.1540 17.0870,8.9040 17.0680,8.9997 17.0138,9.0808 16.9327,9.1350 16.8370,9.1540 15.5870,9.1540 15.4913,9.1350 15.4102,9.0808 15.3560,8.9997 15.3370,8.9040 15.3370,8.1540 15.3560,8.0583 15.4102,7.9772 15.4913,7.9230 15.5870,7.9040 Z" />
</g>
<g style="fill:none;  stroke:#FABD2F; stroke-width:0.5080; stroke-opacity:1;  stroke-linecap:round; stroke-linejoin:round;">
<path d="M17.1000 11.7200 L17.1000 10.8120 " />
<path d="M16.6825 12.1375 L17.1000 11.7200 " />
<path d="M17.1000 9.4170 L16.2120 8.5290 " />
<path d="M17.1000 10.8120 L17.1000 9.4170 " />
<path d="M10.6000 12.1375 L16.6825 12.1375 " />
</g>
</svg>
