<?xml version="1.0" encoding="UTF-8" standalone="no"?>
<svg
   version="1.1"
   width="18.200001cm"
   height="16.700001cm"
   viewBox="0 0 18.2 16.7"
   id="svg150"
   sodipodi:docname="kicad-cli.svg"
   xmlns:inkscape="http://www.inkscape.org/namespaces/inkscape"
   xmlns:sodipodi="http://sodipodi.sourceforge.net/DTD/sodipodi-0.dtd"
   xmlns="http://www.w3.org/2000/svg"
   xmlns:svg="http://www.w3.org/2000/svg">
  <defs
     id="defs150" />
  <sodipodi:namedview
     id="namedview150"
     pagecolor="#ffffff"
     bordercolor="#cccccc"
     borderopacity="1"
     inkscape:showpageshadow="0"
     inkscape:pageopacity="1"
     inkscape:pagecheckerboard="0"
     inkscape:deskcolor="#d1d1d1"
     inkscape:document-units="cm" />
  <title
     id="title1">SVG Image created as kicad-cli.svg date 2025/07/29 20:40:59 </title>
  <desc
     id="desc1">Image generated by PCBNEW </desc>
  <g
     style="fill:#000000;fill-opacity:1;stroke:#000000;stroke-linecap:round;stroke-linejoin:round;stroke-opacity:1"
     id="g1"
     transform="translate(-1.9,-1.9)" />
  <g
     style="fill:#c83434;fill-opacity:1;stroke:none"
     id="g2"
     transform="translate(-1.9,-1.9)">
    <circle
       cx="4"
       cy="4"
       r="1.75"
       id="circle1" />
  </g>
  <g
     style="fill:#c83434;fill-opacity:1;stroke:none"
     id="g3"
     transform="translate(-1.9,-1.9)">
    <circle
       cx="4"
       cy="4"
       r="1.75"
       id="circle2" />
  </g>
  <g
     style="fill:none;stroke:#c83434;stroke-width:1;stroke-linecap:round;stroke-linejoin:round;stroke-opacity:1"
     id="g6"
     transform="translate(-1.9,-1.9)">
    <path
       d="m 6.68,3.02 v 0.6"
       id="path3" />
    <path
       d="m 6.68,6.95 v 1.1"
       id="path4" />
    <path
       d="m 15.32,3.02 v 0.6"
       id="path5" />
    <path
       d="m 15.32,6.95 v 1.1"
       id="path6" />
  </g>
  <g
     style="fill:#c83434;fill-opacity:1;stroke:none"
     id="g7"
     transform="translate(-1.9,-1.9)">
    <circle
       cx="11"
       cy="11.77"
       r="0.30000001"
       id="circle6" />
  </g>
  <g
     style="fill:#c83434;fill-opacity:1;stroke:none"
     id="g8"
     transform="translate(-1.9,-1.9)">
    <circle
       cx="8.5500002"
       cy="9.7609997"
       r="0.30000001"
       id="circle7" />
  </g>
  <g
     style="fill:#c83434;fill-opacity:1;stroke:none"
     id="g9"
     transform="translate(-1.9,-1.9)">
    <circle
       cx="13.45"
       cy="9.7609997"
       r="0.30000001"
       id="circle8" />
  </g>
  <g
     style="fill:#c83434;fill-opacity:1;stroke:none"
     id="g10"
     transform="translate(-1.9,-1.9)">
    <circle
       cx="9.7299995"
       cy="11.412"
       r="0.30000001"
       id="circle9" />
  </g>
  <g
     style="fill:#c83434;fill-opacity:1;stroke:none"
     id="g11"
     transform="translate(-1.9,-1.9)">
    <circle
       cx="11.5"
       cy="13.07"
       r="0.30000001"
       id="circle10" />
  </g>
  <g
     style="fill:#c83434;fill-opacity:1;stroke:none"
     id="g12"
     transform="translate(-1.9,-1.9)">
    <circle
       cx="10.5"
       cy="13.07"
       r="0.30000001"
       id="circle11" />
  </g>
  <g
     style="fill:#c83434;fill-opacity:1;stroke:none"
     id="g13"
     transform="translate(-1.9,-1.9)">
    <circle
       cx="12.27"
       cy="11.412"
       r="0.30000001"
       id="circle12" />
  </g>
  <g
     style="fill:none;stroke:#c83434;stroke-width:0.508;stroke-linecap:round;stroke-linejoin:round;stroke-opacity:1"
     id="g14"
     transform="translate(-1.9,-1.9)">
    <path
       d="M 13.45,9.761 H 8.55"
       id="path13" />
  </g>
  <g
     style="fill:none;stroke:#c83434;stroke-width:0.1524;stroke-linecap:round;stroke-linejoin:round;stroke-opacity:1"
     id="g23"
     transform="translate(-1.9,-1.9)">
    <path
       d="m 9.73,11.412 v 1.7043"
       id="path14" />
    <path
       d="m 9.73,13.1163 0.5309,0.5309"
       id="path15" />
    <path
       d="M 11.32,13.07 H 11.5"
       id="path16" />
    <path
       d="m 10.2609,13.6472 h 0.4819"
       id="path17" />
    <path
       d="M 10.7428,13.6472 11.32,13.07"
       id="path18" />
    <path
       d="M 11.2228,12.3472 10.5,13.07"
       id="path19" />
    <path
       d="m 11.7158,12.3472 h -0.493"
       id="path20" />
    <path
       d="m 12.27,11.793 -0.5542,0.5542"
       id="path21" />
    <path
       d="m 12.27,11.412 v 0.381"
       id="path22" />
    <path
       style="fill:#c83434;fill-opacity:1;fill-rule:evenodd;stroke:none"
       d="M 6.5128,2.2222 6.5345,2.2745 6.5128,2.3268 6.479,2.3449 6.4793,2.3458 6.4758,2.3469 6.3484,2.3997 6.2338,2.4763 v 0 L 6.1363,2.5738 v 0 L 6.0597,2.6884 6.0069,2.8158 v 0 L 5.98,2.9511 V 3.07 h 0.4 v 0.5 h -0.4 v 0.1189 l 0.0269,0.1353 v 0 L 6.0597,3.9516 6.1363,4.0662 6.2338,4.1637 6.3484,4.2403 6.43,4.2741 v 0 V 3.787 L 6.4399,3.8042 6.4958,3.8601 6.5642,3.8996 6.6405,3.92 h 0.079 L 6.7958,3.8996 6.8642,3.8601 6.9201,3.8042 6.93,3.787 V 4.2741 L 7.0116,4.2403 7.1262,4.1637 v 0 L 7.2237,4.0662 v 0 L 7.3003,3.9516 7.3531,3.8242 v 0 L 7.38,3.6889 V 3.57 h -0.4 v -0.5 h 0.4 V 2.9511 L 7.3531,2.8158 v 0 L 7.3003,2.6884 7.2237,2.5738 7.1262,2.4763 7.0116,2.3997 6.8842,2.3469 6.8807,2.3458 6.8811,2.3444 6.838,2.3156 6.8269,2.2601 6.8584,2.213 6.8995,2.2005 h 8.201 l 0.0523,0.0217 0.0217,0.0523 -0.0217,0.0523 -0.0338,0.0181 3e-4,9e-4 -0.0035,0.0011 -0.1274,0.0528 -0.1146,0.0766 v 0 l -0.0975,0.0975 v 0 l -0.0766,0.1146 -0.0528,0.1274 v 0 L 14.62,2.9511 V 3.07 h 0.4 v 0.5 h -0.4 v 0.1189 l 0.0269,0.1353 v 0 l 0.0528,0.1274 0.0766,0.1146 0.0975,0.0975 0.1146,0.0766 0.0816,0.0338 v 0 -0.4871 l 0.0099,0.0172 0.0559,0.0559 0.0684,0.0395 0.0763,0.0204 h 0.079 L 15.4358,3.8996 15.5042,3.8601 15.5601,3.8042 15.57,3.787 v 0.4871 l 0.0816,-0.0338 0.1146,-0.0766 v 0 l 0.0975,-0.0975 v 0 l 0.0766,-0.1146 0.024,-0.0579 h 0.6852 v 0.2126 l 0.0333,0.2099 v 10e-5 l 0.0656,0.2021 0.0965,0.1894 0.0766,0.1053 0.0484,0.0667 0.1503,0.1503 0.0955,0.0694 0.0765,0.0556 0.0913,0.0465 0.0981,0.05 v 0 0 l 0.2021,0.0656 h 10e-5 v 0 l 0.1049,0.0167 0.105,0.0166 v 0 h 0.2126 l 0.084,-0.0133 0.1259,-0.02 h 10e-5 v 0 l 0.2021,-0.0656 v 0 0 l 0.1894,-0.0965 0.172,-0.125 0.1503,-0.1503 0.125,-0.172 0.0965,-0.1894 0.0656,-0.2022 0.0333,-0.2099 V 3.8937 L 19.3456,3.8625 19.3172,3.6838 v -1e-4 L 19.2516,3.4816 v 0 0 L 19.1815,3.3441 19.1551,3.2922 19.0995,3.2157 19.0301,3.1202 18.8798,2.9699 18.8131,2.9215 18.7078,2.8449 18.5184,2.7484 18.3163,2.6828 h -10e-5 L 18.1063,2.6495 v 0 h -0.2126 v 0 l -0.2099,0.0333 h -10e-5 l -0.2021,0.0656 -0.1894,0.0965 -0.172,0.125 v 0 l -0.1503,0.1503 v 0 0 l -0.125,0.172 -0.0965,0.1894 -0.0656,0.2021 v 1e-4 l -0.0333,0.2099 h -0.6852 l 0.0129,-0.0312 v 0 l 0.0159,-0.0383 v 0 L 16.02,3.6889 V 3.57 h -0.4 v -0.5 h 0.4 V 2.9511 L 15.9931,2.8158 v 0 L 15.9403,2.6884 15.8637,2.5738 15.7662,2.4763 15.6516,2.3997 15.5242,2.3469 15.5207,2.3458 15.5211,2.3444 15.478,2.3156 15.4669,2.2601 15.4984,2.213 15.5395,2.2005 h 2.4206 0.0375 l 0.0048,2e-4 0.2276,0.0149 0.0096,0.0012 0.2214,0.0441 0.0093,0.0025 0.2137,0.0725 0.009,0.0037 0.2024,0.0998 0.0084,0.0049 0.1876,0.1254 v 0 l 0.0077,0.0059 0.1697,0.1488 0.0068,0.0068 0.1347,0.1535 0.0141,0.0162 0.0059,0.0077 0.1079,0.1614 0.0175,0.0262 0.0049,0.0084 0.0998,0.2024 0.0037,0.009 0.0725,0.2137 0.0025,0.0093 0.0441,0.2214 0.0012,0.0096 0.0149,0.2276 2e-4,0.0048 v 12.4952 l -2e-4,0.0048 -0.0149,0.2276 -0.0012,0.0096 -0.0441,0.2214 -0.0025,0.0093 -0.0725,0.2137 -0.0037,0.009 -0.0998,0.2024 -0.0049,0.0084 -0.1254,0.1876 -0.0059,0.0077 -0.1488,0.1697 -0.0068,0.0068 -0.1697,0.1488 -0.0077,0.0059 -0.1876,0.1254 -0.0084,0.0049 -0.2024,0.0998 -0.009,0.0037 -0.2137,0.0725 -0.0093,0.0025 -0.2214,0.0441 -0.0096,0.0012 -0.2276,0.0149 -0.0048,2e-4 H 4.0024 L 3.9976,18.2993 3.77,18.2844 3.7604,18.2832 3.539,18.2391 3.5297,18.2366 3.316,18.1641 3.307,18.1604 3.2037,18.1094 3.1046,18.0606 3.0962,18.0557 2.9086,17.9303 2.9009,17.9244 2.8847,17.9103 2.7312,17.7756 2.7244,17.7688 2.5756,17.5991 2.5697,17.5914 2.4443,17.4038 2.4394,17.3954 2.3396,17.193 2.3359,17.184 2.2634,16.9703 2.2609,16.961 2.2168,16.7396 2.2156,16.73 2.2007,16.5024 2.2005,16.4976 v -0.1039 h 0.449 v 0.2126 l 0.0333,0.2099 v 10e-5 l 0.0656,0.2021 0.0965,0.1894 0.0766,0.1053 0.0484,0.0667 0.1503,0.1503 0.0844,0.0613 0.0876,0.0637 0.0913,0.0465 0.0981,0.05 v 0 0 l 0.2021,0.0656 h 1e-4 v 0 l 0.1049,0.0167 0.105,0.0166 v 0 h 0.2126 l 0.084,-0.0133 0.1259,-0.02 h 10e-5 v 0 l 0.2021,-0.0656 v 0 0 l 0.1894,-0.0965 0.172,-0.125 0.1503,-0.1503 0.125,-0.172 0.0965,-0.1894 0.0656,-0.2022 0.0333,-0.2099 v -0.2126 0 h 11.299 v 0.2126 l 0.0333,0.2099 v 10e-5 l 0.0656,0.2021 0.0965,0.1894 0.0766,0.1053 0.0484,0.0667 0.1503,0.1503 0.0844,0.0613 0.0876,0.0637 0.0913,0.0465 0.0981,0.05 v 0 0 l 0.2021,0.0656 h 10e-5 v 0 l 0.1049,0.0167 0.105,0.0166 v 0 h 0.2126 l 0.084,-0.0133 0.1259,-0.02 h 10e-5 v 0 l 0.2021,-0.0656 v 0 0 l 0.1894,-0.0965 0.172,-0.125 0.1503,-0.1503 0.125,-0.172 0.0965,-0.1894 0.0656,-0.2022 0.0333,-0.2099 v -0.2126 l -0.0333,-0.2099 v 0 -10e-5 l -0.0656,-0.2021 v 0 0 l -0.05,-0.0981 -0.0465,-0.0913 -0.0556,-0.0765 -0.0694,-0.0955 -0.1503,-0.1503 -0.0667,-0.0484 -0.1053,-0.0766 -0.1894,-0.0965 -0.2021,-0.0656 h -10e-5 l -0.2099,-0.0333 v 0 h -0.2126 v 0 l -0.2099,0.0333 h -10e-5 l -0.2021,0.0656 -0.1894,0.0965 -0.172,0.125 v 0 l -0.1503,0.1503 v 0 0 l -0.125,0.172 -0.0965,0.1894 -0.0656,0.2021 v 10e-5 l -0.0333,0.2099 H 5.3505 L 5.3172,16.1838 v 0 -10e-5 L 5.2516,15.9816 v 0 0 L 5.2016,15.8835 5.1551,15.7922 5.0995,15.7157 5.0301,15.6202 4.8798,15.4699 4.8131,15.4215 4.7078,15.3449 4.5184,15.2484 4.3163,15.1828 H 4.3162 L 4.1063,15.1495 v 0 H 3.8937 v 0 l -0.2099,0.0333 h -1e-4 l -0.2021,0.0656 -0.1894,0.0965 -0.172,0.125 v 0 l -0.1503,0.1503 v 0 0 l -0.125,0.172 -0.0965,0.1894 -0.0656,0.2021 v 10e-5 l -0.0333,0.2099 h -0.449 v -5.0476 h 7.029 v 0.1318 l 0.0341,0.1273 v 0 0 l 0.0659,0.1141 0.0932,0.0932 v 0 l 0.0016,0.0013 6e-4,9e-4 0.0012,0.0012 -3e-4,4e-4 0.0269,0.0465 6e-4,0.0097 v 1.2074 0.0728 l 0.0189,0.0704 0.0364,0.0631 0.5309,0.5309 v 0 l 0.0515,0.0515 v 0 l 0.0631,0.0364 0.0704,0.0189 v 0 h 0.5547 v 0 l 0.0704,-0.0189 0.0631,-0.0364 0.3154,-0.3154 0.0523,-0.0216 0.0215,0.0042 2e-4,-7e-4 0.0047,0.0013 v 0 l 0.1273,0.0341 v 0 h 0.1318 v 0 l 0.1273,-0.0341 0.1141,-0.0659 0.0932,-0.0932 0.0659,-0.1141 0.0341,-0.1273 v 0 -0.1318 0 l -0.0013,-0.0047 -0.0328,-0.1226 -0.0659,-0.1141 -0.0603,-0.0603 -0.0216,-0.0523 0.0216,-0.0523 0.0154,-0.0118 0.0301,-0.0174 0.6057,-0.6057 0.0364,-0.0631 0.0107,-0.0399 0.0345,-0.0449 0.0043,-0.0025 0.0932,-0.0932 0.0659,-0.1141 0.0341,-0.1273 v 0 -0.1318 0 l -0.0341,-0.1273 v 0 l -0.0659,-0.1141 -0.0932,-0.0932 -0.1141,-0.0659 v 0 l -0.1273,-0.0341 v 0 h -0.1318 v 0 l -0.1273,0.0341 v 0 l -0.1141,0.0659 -0.0932,0.0932 -0.0659,0.1141 v 0 l -0.0341,0.1273 v 0.1318 l 0.0341,0.1273 v 0 l 0.0678,0.1175 0.0074,0.0561 -0.0191,0.0332 -0.2368,0.2368 -0.0524,0.0217 h -0.3113 -0.0728 l -0.0352,0.0094 -0.0352,0.0095 v 0 l -0.0631,0.0364 v 0 l -0.4229,0.4229 -0.0524,0.0217 -0.0096,-6e-4 -0.0021,-3e-4 h -0.1318 v 0 l -0.1273,0.0341 v 0 l -0.1141,0.0659 -0.0597,0.0597 -0.0523,0.0216 -0.0523,-0.0216 -0.0217,-0.0524 v -0.8043 l 0.0217,-0.0523 0.0073,-0.0064 0.0016,-0.0013 v 0 l 0.0932,-0.0932 0.0659,-0.1141 0.0341,-0.1273 v 0 -0.1318 0 l -0.0341,-0.1273 v 0 L 10.1305,11.1047 10.0373,11.0115 9.9232,10.9456 v 0 L 9.7959,10.9115 v 0 H 9.6641 v 0 l -0.1273,0.0341 v 0 l -0.1141,0.0659 -0.0932,0.0932 -0.0659,0.1141 v 0 l -0.0341,0.1273 h -7.029 v -1.651 h 5.849 v 0.1318 l 0.0341,0.1273 v 0 0 l 0.0659,0.1141 0.0932,0.0932 0.1141,0.0659 0.1273,0.0341 v 0 0 h 0.1318 v 0 l 0.1273,-0.0341 v 0 0 l 0.0034,-0.002 0.037,-0.0099 h 4.4328 l 0.037,0.0099 0.0034,0.002 v 0 0 l 0.1273,0.0341 v 0 h 0.1318 v 0 l 0.1273,-0.0341 0.1141,-0.0659 0.0932,-0.0932 0.0659,-0.1141 0.0341,-0.1273 v 0 -0.1318 0 L 13.9164,9.5678 v 0 L 13.8505,9.4537 13.7573,9.3605 13.6432,9.2946 v 0 L 13.5159,9.2605 v 0 h -0.1318 l -0.1004,0.0269 -0.0269,0.0072 v 0 l -0.0034,0.002 -0.037,0.0099 H 8.7836 L 8.7466,9.2966 8.7432,9.2946 v 0 L 8.6159,9.2605 H 8.4841 v 0 L 8.3568,9.2946 v 0 L 8.2427,9.3605 8.1495,9.4537 8.0836,9.5678 v 0 L 8.0495,9.6951 H 2.2005 V 6.8811 H 5.98 V 7.25 h 0.4 v 0.5 h -0.4 v 0.3689 l 0.0269,0.1353 v 0 L 6.0597,8.3816 6.1363,8.4962 6.2338,8.5937 6.3484,8.6703 6.43,8.7041 v 0 V 8.217 L 6.4399,8.2342 6.4958,8.2901 6.5642,8.3296 6.6405,8.35 h 0.079 L 6.7958,8.3296 6.8642,8.2901 6.9201,8.2342 6.93,8.217 V 8.7041 L 7.0116,8.6703 7.1262,8.5937 v 0 L 7.2237,8.4962 v 0 L 7.3003,8.3816 7.3531,8.2542 v 0 L 7.38,8.1189 V 7.75 h -0.4 v -0.5 h 0.4 V 6.8942 h 0.1545 v 0.1516 l 0.0392,0.1463 v 0 l 0.0758,0.1313 v 0 l 0.1071,0.1071 0.1313,0.0758 0.1463,0.0392 v 0 0 h 0.1516 v 0 L 8.3321,7.5063 8.4634,7.4305 8.5705,7.3234 8.6463,7.1921 8.6855,7.0458 v 0 -0.1516 0 h 4.629 v 0.1516 l 0.0392,0.1463 v 0 l 0.0758,0.1313 v 0 l 0.1071,0.1071 0.1313,0.0758 0.1463,0.0392 v 0 0 h 0.1516 v 0 l 0.1463,-0.0392 0.1313,-0.0758 0.1071,-0.1071 0.0758,-0.1313 0.0392,-0.1463 v 0 -0.1516 0 L 14.462,6.8811 H 14.62 V 7.25 h 0.4 v 0.5 h -0.4 v 0.3689 l 0.0269,0.1353 v 0 l 0.0528,0.1274 0.0766,0.1146 0.0975,0.0975 0.1146,0.0766 0.0816,0.0338 v 0 -0.4871 l 0.0099,0.0172 0.0559,0.0559 0.0684,0.0395 0.0763,0.0204 h 0.079 L 15.4358,8.3296 15.5042,8.2901 15.5601,8.2342 15.57,8.217 v 0.4871 l 0.0816,-0.0338 0.1146,-0.0766 v 0 l 0.0975,-0.0975 v 0 l 0.0766,-0.1146 0.0528,-0.1274 v 0 L 16.02,8.1189 V 7.75 h -0.4 v -0.5 h 0.4 V 6.8811 L 15.9931,6.7458 v 0 L 15.9403,6.6184 15.8637,6.5038 15.7662,6.4063 15.6516,6.3297 15.57,6.2959 V 6.783 L 15.5601,6.7658 15.5042,6.7099 15.4358,6.6704 15.3595,6.65 h -0.079 L 15.2042,6.6704 15.1358,6.7099 15.0799,6.7658 15.07,6.783 v -0.4871 0 l -0.0816,0.0338 -0.1146,0.0766 v 0 l -0.0975,0.0975 v 0 l -0.0766,0.1146 -0.0528,0.1274 v 0 L 14.62,6.8811 H 14.462 L 14.4263,6.7479 v 0 L 14.3505,6.6166 14.2434,6.5095 14.2335,6.5038 14.1121,6.4337 v 0 L 13.9658,6.3945 v 0 h -0.1516 v 0 l -0.1463,0.0392 v 0 l -0.1313,0.0758 -0.1071,0.1071 -0.0758,0.1313 v 0 L 13.3145,6.8942 H 8.6855 L 8.6463,6.7479 v 0 L 8.5705,6.6166 8.4634,6.5095 8.4535,6.5038 8.3321,6.4337 v 0 L 8.1858,6.3945 v 0 H 8.0342 v 0 L 7.8879,6.4337 v 0 L 7.7566,6.5095 7.6495,6.6166 7.5737,6.7479 v 0 L 7.5345,6.8942 H 7.38 V 6.8811 L 7.3531,6.7458 v 0 L 7.3003,6.6184 7.2237,6.5038 7.1262,6.4063 7.0116,6.3297 6.93,6.2959 V 6.783 L 6.9201,6.7658 6.8642,6.7099 6.7958,6.6704 6.7195,6.65 H 6.6405 L 6.5642,6.6704 6.4958,6.7099 6.4399,6.7658 6.43,6.783 v -0.4871 0 L 6.3484,6.3297 6.2338,6.4063 v 0 L 6.1363,6.5038 v 0 L 6.0597,6.6184 6.0069,6.7458 v 0 L 5.98,6.8811 H 2.2005 V 4.0024 L 2.2007,3.9976 2.2156,3.77 2.2168,3.7604 2.2321,3.6838 2.2609,3.539 2.2634,3.5297 2.2682,3.5156 2.3359,3.3159 2.3396,3.307 2.4394,3.1046 2.4443,3.0962 2.4618,3.07 2.5697,2.9086 2.5755,2.9009 2.7244,2.7312 2.7312,2.7244 2.9009,2.5755 2.9086,2.5697 3.0962,2.4443 3.1046,2.4394 3.307,2.3396 3.3159,2.3359 3.5297,2.2634 3.539,2.2609 3.7604,2.2168 3.77,2.2156 3.9976,2.2007 4.0024,2.2005 h 0.0375 2.4206 z"
       id="path23" />
  </g>
  <g
     style="fill:#4d7fc4;fill-opacity:1;stroke:none"
     id="g24"
     transform="translate(-1.9,-1.9)">
    <circle
       cx="4"
       cy="16.5"
       r="1.75"
       id="circle23" />
  </g>
  <g
     style="fill:#4d7fc4;fill-opacity:1;stroke:none"
     id="g25"
     transform="translate(-1.9,-1.9)">
    <circle
       cx="18"
       cy="16.5"
       r="1.75"
       id="circle24" />
  </g>
  <g
     style="fill:#4d7fc4;fill-opacity:1;stroke:none"
     id="g26"
     transform="translate(-1.9,-1.9)">
    <circle
       cx="4"
       cy="4"
       r="1.75"
       id="circle25" />
  </g>
  <g
     style="fill:#4d7fc4;fill-opacity:1;stroke:none"
     id="g27"
     transform="translate(-1.9,-1.9)">
    <circle
       cx="4"
       cy="4"
       r="1.75"
       id="circle26" />
  </g>
  <g
     style="fill:#4d7fc4;fill-opacity:1;stroke:none"
     id="g54"
     transform="translate(-1.9,-1.9)">
    <circle
       cx="18"
       cy="4"
       r="1.75"
       id="circle27" />
    <path
       style="fill:#4d7fc4;fill-opacity:1;fill-rule:evenodd;stroke:none"
       d="m 12.8,14.025 -0.0114,0.0574 -0.0325,0.0487 -0.0487,0.0325 -0.0574,0.0114 h -0.3 L 12.2926,14.1636 12.2439,14.1311 12.2114,14.0824 12.2,14.025 v -1.25 l 0.0114,-0.0574 0.0325,-0.0487 0.0487,-0.0325 0.0574,-0.0114 h 0.3 l 0.0574,0.0114 0.0487,0.0325 0.0325,0.0487 0.0114,0.0574 z"
       id="path27" />
    <path
       style="fill:#4d7fc4;fill-opacity:1;fill-rule:evenodd;stroke:none"
       d="m 11.8,14.025 -0.0114,0.0574 -0.0325,0.0487 -0.0487,0.0325 -0.0574,0.0114 h -0.3 L 11.2926,14.1636 11.2439,14.1311 11.2114,14.0824 11.2,14.025 v -1.25 l 0.0114,-0.0574 0.0325,-0.0487 0.0487,-0.0325 0.0574,-0.0114 h 0.3 l 0.0574,0.0114 0.0487,0.0325 0.0325,0.0487 0.0114,0.0574 z"
       id="path28" />
    <path
       style="fill:#4d7fc4;fill-opacity:1;fill-rule:evenodd;stroke:none"
       d="m 10.8,14.025 -0.0114,0.0574 -0.0325,0.0487 -0.0487,0.0325 -0.0574,0.0114 h -0.3 L 10.2926,14.1636 10.2439,14.1311 10.2114,14.0824 10.2,14.025 v -1.25 l 0.0114,-0.0574 0.0325,-0.0487 0.0487,-0.0325 0.0574,-0.0114 h 0.3 l 0.0574,0.0114 0.0487,0.0325 0.0325,0.0487 0.0114,0.0574 z"
       id="path29" />
    <path
       style="fill:#4d7fc4;fill-opacity:1;fill-rule:evenodd;stroke:none"
       d="M 9.8,14.025 9.7886,14.0824 9.7561,14.1311 9.7074,14.1636 9.65,14.175 H 9.35 L 9.2926,14.1636 9.2439,14.1311 9.2114,14.0824 9.2,14.025 v -1.25 L 9.2114,12.7176 9.2439,12.6689 9.2926,12.6364 9.35,12.625 h 0.3 l 0.0574,0.0114 0.0487,0.0325 0.0325,0.0487 L 9.8,12.775 Z"
       id="path30" />
    <path
       style="fill:#4d7fc4;fill-opacity:1;fill-rule:evenodd;stroke:none"
       d="m 14.4,17.925 -0.019,0.0957 -0.0542,0.0811 -0.0811,0.0542 -0.0957,0.019 h -0.7 L 13.3543,18.156 13.2732,18.1018 13.219,18.0207 13.2,17.925 v -1.3 l 0.019,-0.0957 0.0542,-0.0811 0.0811,-0.0542 0.0957,-0.019 h 0.7 l 0.0957,0.019 0.0811,0.0542 0.0542,0.0811 0.019,0.0957 z"
       id="path31" />
    <path
       style="fill:#4d7fc4;fill-opacity:1;fill-rule:evenodd;stroke:none"
       d="M 8.8,17.925 8.781,18.0207 8.7268,18.1018 8.6457,18.156 8.55,18.175 H 7.85 L 7.7543,18.156 7.6732,18.1018 7.619,18.0207 7.6,17.925 v -1.3 L 7.619,16.5293 7.6732,16.4482 7.7543,16.394 7.85,16.375 h 0.7 l 0.0957,0.019 0.0811,0.0542 0.0542,0.0811 0.019,0.0957 z"
       id="path32" />
    <path
       style="fill:#4d7fc4;fill-opacity:1;fill-rule:evenodd;stroke:none"
       d="m 8.227,10.426 0.0765,0.0152 0.0649,0.0434 0.0434,0.0649 0.0152,0.0765 v 0.4 L 8.4118,11.1025 8.3684,11.1674 8.3035,11.2108 8.227,11.226 H 7.677 L 7.6005,11.2108 7.5356,11.1674 7.4922,11.1025 7.477,11.026 v -0.4 L 7.4922,10.5495 7.5356,10.4846 7.6005,10.4412 7.677,10.426 Z"
       id="path33" />
    <path
       style="fill:#4d7fc4;fill-opacity:1;fill-rule:evenodd;stroke:none"
       d="m 8.227,12.076 0.0765,0.0152 0.0649,0.0434 0.0434,0.0649 0.0152,0.0765 v 0.4 L 8.4118,12.7525 8.3684,12.8174 8.3035,12.8608 8.227,12.876 H 7.677 L 7.6005,12.8608 7.5356,12.8174 7.4922,12.7525 7.477,12.676 v -0.4 L 7.4922,12.1995 7.5356,12.1346 7.6005,12.0912 7.677,12.076 Z"
       id="path34" />
    <path
       style="fill:#4d7fc4;fill-opacity:1;fill-rule:evenodd;stroke:none"
       d="m 14.323,10.426 0.0765,0.0152 0.0649,0.0434 0.0434,0.0649 0.0152,0.0765 v 0.4 l -0.0152,0.0765 -0.0434,0.0649 -0.0649,0.0434 -0.0765,0.0152 h -0.55 L 13.6965,11.2108 13.6316,11.1674 13.5882,11.1025 13.573,11.026 v -0.4 l 0.0152,-0.0765 0.0434,-0.0649 0.0649,-0.0434 0.0765,-0.0152 z"
       id="path35" />
    <path
       style="fill:#4d7fc4;fill-opacity:1;fill-rule:evenodd;stroke:none"
       d="m 14.323,12.076 0.0765,0.0152 0.0649,0.0434 0.0434,0.0649 0.0152,0.0765 v 0.4 l -0.0152,0.0765 -0.0434,0.0649 -0.0649,0.0434 -0.0765,0.0152 h -0.55 L 13.6965,12.8608 13.6316,12.8174 13.5882,12.7525 13.573,12.676 v -0.4 l 0.0152,-0.0765 0.0434,-0.0649 0.0649,-0.0434 0.0765,-0.0152 z"
       id="path36" />
    <path
       style="fill:#4d7fc4;fill-opacity:1;fill-rule:evenodd;stroke:none"
       d="m 15.25,12.337 0.0171,-0.0861 0.0488,-0.073 0.073,-0.0488 0.0861,-0.0171 h 0.45 l 0.0861,0.0171 0.073,0.0488 0.0488,0.073 0.0171,0.0861 v 0.75 l -0.0171,0.0861 -0.0488,0.073 -0.073,0.0488 -0.0861,0.0171 h -0.45 L 15.3889,13.2949 15.3159,13.2461 15.2671,13.1731 15.25,13.087 Z"
       id="path37" />
    <path
       style="fill:#4d7fc4;fill-opacity:1;fill-rule:evenodd;stroke:none"
       d="m 18.55,12.337 0.0171,-0.0861 0.0488,-0.073 0.073,-0.0488 0.0861,-0.0171 h 0.45 l 0.0861,0.0171 0.073,0.0488 0.0488,0.073 0.0171,0.0861 v 0.75 l -0.0171,0.0861 -0.0488,0.073 -0.073,0.0488 -0.0861,0.0171 h -0.45 L 18.6889,13.2949 18.6159,13.2461 18.5671,13.1731 18.55,13.087 Z"
       id="path38" />
    <path
       style="fill:#4d7fc4;fill-opacity:1;fill-rule:evenodd;stroke:none"
       d="M 7.45,9.14 V 7.69 h 0.6 v 1.45 z"
       id="path39" />
    <path
       style="fill:#4d7fc4;fill-opacity:1;fill-rule:evenodd;stroke:none"
       d="M 8.25,9.14 V 7.69 h 0.6 v 1.45 z"
       id="path40" />
    <path
       style="fill:#4d7fc4;fill-opacity:1;fill-rule:evenodd;stroke:none"
       d="M 9.6,9.14 V 7.69 h 0.3 v 1.45 z"
       id="path41" />
    <path
       style="fill:#4d7fc4;fill-opacity:1;fill-rule:evenodd;stroke:none"
       d="M 10.6,9.14 V 7.69 h 0.3 v 1.45 z"
       id="path42" />
    <path
       style="fill:#4d7fc4;fill-opacity:1;fill-rule:evenodd;stroke:none"
       d="M 11.1,9.14 V 7.69 h 0.3 v 1.45 z"
       id="path43" />
    <path
       style="fill:#4d7fc4;fill-opacity:1;fill-rule:evenodd;stroke:none"
       d="M 12.1,9.14 V 7.69 h 0.3 v 1.45 z"
       id="path44" />
    <path
       style="fill:#4d7fc4;fill-opacity:1;fill-rule:evenodd;stroke:none"
       d="M 13.15,9.14 V 7.69 h 0.6 v 1.45 z"
       id="path45" />
    <path
       style="fill:#4d7fc4;fill-opacity:1;fill-rule:evenodd;stroke:none"
       d="M 13.95,9.14 V 7.69 h 0.6 v 1.45 z"
       id="path46" />
    <path
       style="fill:#4d7fc4;fill-opacity:1;fill-rule:evenodd;stroke:none"
       d="M 13.95,9.14 V 7.69 h 0.6 v 1.45 z"
       id="path47" />
    <path
       style="fill:#4d7fc4;fill-opacity:1;fill-rule:evenodd;stroke:none"
       d="M 13.15,9.14 V 7.69 h 0.6 v 1.45 z"
       id="path48" />
    <path
       style="fill:#4d7fc4;fill-opacity:1;fill-rule:evenodd;stroke:none"
       d="M 12.6,9.14 V 7.69 h 0.3 v 1.45 z"
       id="path49" />
    <path
       style="fill:#4d7fc4;fill-opacity:1;fill-rule:evenodd;stroke:none"
       d="M 11.6,9.14 V 7.69 h 0.3 v 1.45 z"
       id="path50" />
    <path
       style="fill:#4d7fc4;fill-opacity:1;fill-rule:evenodd;stroke:none"
       d="M 10.1,9.14 V 7.69 h 0.3 v 1.45 z"
       id="path51" />
    <path
       style="fill:#4d7fc4;fill-opacity:1;fill-rule:evenodd;stroke:none"
       d="M 9.1,9.14 V 7.69 h 0.3 v 1.45 z"
       id="path52" />
    <path
       style="fill:#4d7fc4;fill-opacity:1;fill-rule:evenodd;stroke:none"
       d="M 8.25,9.14 V 7.69 h 0.6 v 1.45 z"
       id="path53" />
    <path
       style="fill:#4d7fc4;fill-opacity:1;fill-rule:evenodd;stroke:none"
       d="M 7.45,9.14 V 7.69 h 0.6 v 1.45 z"
       id="path54" />
  </g>
  <g
     style="fill:none;stroke:#4d7fc4;stroke-width:1;stroke-linecap:round;stroke-linejoin:round;stroke-opacity:1"
     id="g70"
     transform="translate(-1.9,-1.9)">
    <path
       d="m 6.68,3.02 v 0.6"
       id="path55" />
    <path
       d="m 6.68,6.95 v 1.1"
       id="path56" />
    <path
       d="m 15.32,3.02 v 0.6"
       id="path57" />
    <path
       d="m 15.32,6.95 v 1.1"
       id="path58" />
    <path
       style="fill:#4d7fc4;fill-opacity:1;fill-rule:evenodd;stroke:none"
       d="m 18.737,7.004 0.0957,0.019 0.0811,0.0542 0.0542,0.0811 0.019,0.0957 v 0.75 L 18.968,8.0997 18.9138,8.1808 18.8327,8.235 18.737,8.254 h -1.25 L 17.3913,8.235 17.3102,8.1808 17.256,8.0997 17.237,8.004 V 7.254 L 17.256,7.1583 17.3102,7.0772 17.3913,7.023 17.487,7.004 Z"
       id="path59" />
    <path
       style="fill:#4d7fc4;fill-opacity:1;fill-rule:evenodd;stroke:none"
       d="m 18.737,9.804 0.0957,0.019 0.0811,0.0542 0.0542,0.0811 0.019,0.0957 v 0.75 l -0.019,0.0957 -0.0542,0.0811 -0.0811,0.0542 -0.0957,0.019 h -1.25 L 17.3913,11.035 17.3102,10.9808 17.256,10.8997 17.237,10.804 v -0.75 L 17.256,9.9583 17.3102,9.8772 17.3913,9.823 17.487,9.804 Z"
       id="path60" />
    <path
       style="fill:#4d7fc4;fill-opacity:1;fill-rule:evenodd;stroke:none"
       d="m 12.15,11.1334 -0.0057,0.0287 -0.0163,0.0243 -0.0243,0.0163 -0.0287,0.0057 h -0.15 L 11.8963,11.2027 11.872,11.1864 11.8557,11.1621 11.85,11.1334 v -0.4 l 0.0057,-0.0287 0.0163,-0.0243 0.0243,-0.0163 0.0287,-0.0057 h 0.15 l 0.0287,0.0057 0.0243,0.0163 0.0163,0.0243 0.0057,0.0287 z"
       id="path61" />
    <path
       style="fill:#4d7fc4;fill-opacity:1;fill-rule:evenodd;stroke:none"
       d="m 11.65,11.1334 -0.0057,0.0287 -0.0163,0.0243 -0.0243,0.0163 -0.0287,0.0057 h -0.15 L 11.3963,11.2027 11.372,11.1864 11.3557,11.1621 11.35,11.1334 v -0.4 l 0.0057,-0.0287 0.0163,-0.0243 0.0243,-0.0163 0.0287,-0.0057 h 0.15 l 0.0287,0.0057 0.0243,0.0163 0.0163,0.0243 0.0057,0.0287 z"
       id="path62" />
    <path
       style="fill:#4d7fc4;fill-opacity:1;fill-rule:evenodd;stroke:none"
       d="m 11.15,11.1334 -0.0057,0.0287 -0.0163,0.0243 -0.0243,0.0163 -0.0287,0.0057 h -0.15 L 10.8963,11.2027 10.872,11.1864 10.8557,11.1621 10.85,11.1334 v -0.4 l 0.0057,-0.0287 0.0163,-0.0243 0.0243,-0.0163 0.0287,-0.0057 h 0.15 l 0.0287,0.0057 0.0243,0.0163 0.0163,0.0243 0.0057,0.0287 z"
       id="path63" />
    <path
       style="fill:#4d7fc4;fill-opacity:1;fill-rule:evenodd;stroke:none"
       d="m 10.65,11.1334 -0.0057,0.0287 -0.0163,0.0243 -0.0243,0.0163 -0.0287,0.0057 h -0.15 L 10.3963,11.2027 10.372,11.1864 10.3557,11.1621 10.35,11.1334 v -0.4 l 0.0057,-0.0287 0.0163,-0.0243 0.0243,-0.0163 0.0287,-0.0057 h 0.15 l 0.0287,0.0057 0.0243,0.0163 0.0163,0.0243 0.0057,0.0287 z"
       id="path64" />
    <path
       style="fill:#4d7fc4;fill-opacity:1;fill-rule:evenodd;stroke:none"
       d="m 10.15,11.1334 -0.0057,0.0287 -0.0163,0.0243 -0.0243,0.0163 -0.0287,0.0057 H 9.925 L 9.8963,11.2027 9.872,11.1864 9.8557,11.1621 9.85,11.1334 v -0.4 L 9.8557,10.7047 9.872,10.6804 9.8963,10.6641 9.925,10.6584 h 0.15 l 0.0287,0.0057 0.0243,0.0163 0.0163,0.0243 0.0057,0.0287 z"
       id="path65" />
    <path
       style="fill:#4d7fc4;fill-opacity:1;fill-rule:evenodd;stroke:none"
       d="m 10.15,10.3634 -0.0057,0.0287 -0.0163,0.0243 -0.0243,0.0163 -0.0287,0.0057 H 9.925 L 9.8963,10.4327 9.872,10.4164 9.8557,10.3921 9.85,10.3634 v -0.4 L 9.8557,9.9347 9.872,9.9104 9.8963,9.8941 9.925,9.8884 h 0.15 l 0.0287,0.0057 0.0243,0.0163 0.0163,0.0243 0.0057,0.0287 z"
       id="path66" />
    <path
       style="fill:#4d7fc4;fill-opacity:1;fill-rule:evenodd;stroke:none"
       d="m 10.65,10.3634 -0.0057,0.0287 -0.0163,0.0243 -0.0243,0.0163 -0.0287,0.0057 h -0.15 L 10.3963,10.4327 10.372,10.4164 10.3557,10.3921 10.35,10.3634 v -0.4 L 10.3557,9.9347 10.372,9.9104 10.3963,9.8941 10.425,9.8884 h 0.15 l 0.0287,0.0057 0.0243,0.0163 0.0163,0.0243 0.0057,0.0287 z"
       id="path67" />
    <path
       style="fill:#4d7fc4;fill-opacity:1;fill-rule:evenodd;stroke:none"
       d="m 11.15,10.3634 -0.0057,0.0287 -0.0163,0.0243 -0.0243,0.0163 -0.0287,0.0057 h -0.15 L 10.8963,10.4327 10.872,10.4164 10.8557,10.3921 10.85,10.3634 v -0.4 L 10.8557,9.9347 10.872,9.9104 10.8963,9.8941 10.925,9.8884 h 0.15 l 0.0287,0.0057 0.0243,0.0163 0.0163,0.0243 0.0057,0.0287 z"
       id="path68" />
    <path
       style="fill:#4d7fc4;fill-opacity:1;fill-rule:evenodd;stroke:none"
       d="m 11.65,10.3634 -0.0057,0.0287 -0.0163,0.0243 -0.0243,0.0163 -0.0287,0.0057 h -0.15 L 11.3963,10.4327 11.372,10.4164 11.3557,10.3921 11.35,10.3634 v -0.4 L 11.3557,9.9347 11.372,9.9104 11.3963,9.8941 11.425,9.8884 h 0.15 l 0.0287,0.0057 0.0243,0.0163 0.0163,0.0243 0.0057,0.0287 z"
       id="path69" />
    <path
       style="fill:#4d7fc4;fill-opacity:1;fill-rule:evenodd;stroke:none"
       d="m 12.15,10.3634 -0.0057,0.0287 -0.0163,0.0243 -0.0243,0.0163 -0.0287,0.0057 h -0.15 L 11.8963,10.4327 11.872,10.4164 11.8557,10.3921 11.85,10.3634 v -0.4 L 11.8557,9.9347 11.872,9.9104 11.8963,9.8941 11.925,9.8884 h 0.15 l 0.0287,0.0057 0.0243,0.0163 0.0163,0.0243 0.0057,0.0287 z"
       id="path70" />
  </g>
  <g
     style="fill:#4d7fc4;fill-opacity:1;stroke:none"
     id="g71"
     transform="translate(-1.9,-1.9)">
    <circle
       cx="11"
       cy="11.77"
       r="0.30000001"
       id="circle70" />
  </g>
  <g
     style="fill:#4d7fc4;fill-opacity:1;stroke:none"
     id="g72"
     transform="translate(-1.9,-1.9)">
    <circle
       cx="8.5500002"
       cy="9.7609997"
       r="0.30000001"
       id="circle71" />
  </g>
  <g
     style="fill:#4d7fc4;fill-opacity:1;stroke:none"
     id="g73"
     transform="translate(-1.9,-1.9)">
    <circle
       cx="13.45"
       cy="9.7609997"
       r="0.30000001"
       id="circle72" />
  </g>
  <g
     style="fill:#4d7fc4;fill-opacity:1;stroke:none"
     id="g74"
     transform="translate(-1.9,-1.9)">
    <circle
       cx="9.7299995"
       cy="11.412"
       r="0.30000001"
       id="circle73" />
  </g>
  <g
     style="fill:#4d7fc4;fill-opacity:1;stroke:none"
     id="g75"
     transform="translate(-1.9,-1.9)">
    <circle
       cx="11.5"
       cy="13.07"
       r="0.30000001"
       id="circle74" />
  </g>
  <g
     style="fill:#4d7fc4;fill-opacity:1;stroke:none"
     id="g76"
     transform="translate(-1.9,-1.9)">
    <circle
       cx="10.5"
       cy="13.07"
       r="0.30000001"
       id="circle75" />
  </g>
  <g
     style="fill:#4d7fc4;fill-opacity:1;stroke:none"
     id="g77"
     transform="translate(-1.9,-1.9)">
    <circle
       cx="12.27"
       cy="11.412"
       r="0.30000001"
       id="circle76" />
  </g>
  <g
     style="fill:none;stroke:#4d7fc4;stroke-width:0.508;stroke-linecap:round;stroke-linejoin:round;stroke-opacity:1"
     id="g81"
     transform="translate(-1.9,-1.9)">
    <path
       d="M 19,13.62 V 12.712"
       id="path77" />
    <path
       d="M 18.5825,14.0375 19,13.62"
       id="path78" />
    <path
       d="M 19,11.317 18.112,10.429"
       id="path79" />
    <path
       d="M 19,12.712 V 11.317"
       id="path80" />
    <path
       d="m 12.5,14.0375 h 6.0825"
       id="path81" />
  </g>
  <g
     style="fill:none;stroke:#4d7fc4;stroke-width:0.254;stroke-linecap:round;stroke-linejoin:round;stroke-opacity:1"
     id="g82"
     transform="translate(-1.9,-1.9)">
    <path
       d="M 11,10.1634 V 11.77"
       id="path82" />
  </g>
  <g
     style="fill:none;stroke:#4d7fc4;stroke-width:0.508;stroke-linecap:round;stroke-linejoin:round;stroke-opacity:1"
     id="g89"
     transform="translate(-1.9,-1.9)">
    <path
       d="M 13.45,8.09 V 9.761"
       id="path83" />
    <path
       d="m 13.45,9.761 h 1.8206"
       id="path84" />
    <path
       d="M 8.55,8.09 V 9.761"
       id="path85" />
    <path
       d="m 16.878,7.629 h 1.234"
       id="path86" />
    <path
       d="M 16.325,8.182 V 8.7066"
       id="path87" />
    <path
       d="M 16.325,8.182 16.878,7.629"
       id="path88" />
    <path
       d="M 15.2706,9.761 16.325,8.7066"
       id="path89" />
  </g>
  <g
     style="fill:none;stroke:#4d7fc4;stroke-width:0.254;stroke-linecap:round;stroke-linejoin:round;stroke-opacity:1"
     id="g90"
     transform="translate(-1.9,-1.9)">
    <path
       d="m 11.628,11.5099 v 0.5202"
       id="path90" />
  </g>
  <g
     style="fill:none;stroke:#4d7fc4;stroke-width:0.1524;stroke-linecap:round;stroke-linejoin:round;stroke-opacity:1"
     id="g91"
     transform="translate(-1.9,-1.9)">
    <path
       d="m 10,9.6108 0.25,-0.25"
       id="path91" />
  </g>
  <g
     style="fill:none;stroke:#4d7fc4;stroke-width:0.254;stroke-linecap:round;stroke-linejoin:round;stroke-opacity:1"
     id="g95"
     transform="translate(-1.9,-1.9)">
    <path
       d="m 11.5,10.9334 v 0.4485"
       id="path92" />
    <path
       d="M 11.5,12.1581 V 13.07"
       id="path93" />
    <path
       d="M 11.628,12.0301 11.5,12.1581"
       id="path94" />
    <path
       d="M 11.5,9.77 11.25,9.52"
       id="path95" />
  </g>
  <g
     style="fill:none;stroke:#4d7fc4;stroke-width:0.1524;stroke-linecap:round;stroke-linejoin:round;stroke-opacity:1"
     id="g96"
     transform="translate(-1.9,-1.9)">
    <path
       d="M 10.25,9.3608 V 8.415"
       id="path96" />
  </g>
  <g
     style="fill:none;stroke:#4d7fc4;stroke-width:0.254;stroke-linecap:round;stroke-linejoin:round;stroke-opacity:1"
     id="g99"
     transform="translate(-1.9,-1.9)">
    <path
       d="M 10,10.9334 V 11.142"
       id="path97" />
    <path
       d="m 11.5,11.3819 0.128,0.128"
       id="path98" />
    <path
       d="m 10,11.142 -0.27,0.27"
       id="path99" />
  </g>
  <g
     style="fill:none;stroke:#4d7fc4;stroke-width:0.1524;stroke-linecap:round;stroke-linejoin:round;stroke-opacity:1"
     id="g100"
     transform="translate(-1.9,-1.9)">
    <path
       d="M 10,10.9334 V 9.6108"
       id="path100" />
  </g>
  <g
     style="fill:none;stroke:#4d7fc4;stroke-width:0.254;stroke-linecap:round;stroke-linejoin:round;stroke-opacity:1"
     id="g102"
     transform="translate(-1.9,-1.9)">
    <path
       d="M 11.25,9.52 V 8.415"
       id="path101" />
    <path
       d="M 11.5,10.9334 V 9.77"
       id="path102" />
  </g>
  <g
     style="fill:none;stroke:#4d7fc4;stroke-width:0.1524;stroke-linecap:round;stroke-linejoin:round;stroke-opacity:1"
     id="g103"
     transform="translate(-1.9,-1.9)">
    <path
       d="M 11.75,9.3608 V 8.415"
       id="path103" />
  </g>
  <g
     style="fill:none;stroke:#4d7fc4;stroke-width:0.254;stroke-linecap:round;stroke-linejoin:round;stroke-opacity:1"
     id="g104"
     transform="translate(-1.9,-1.9)">
    <path
       d="M 10.75,9.52 V 8.415"
       id="path104" />
  </g>
  <g
     style="fill:none;stroke:#4d7fc4;stroke-width:0.1524;stroke-linecap:round;stroke-linejoin:round;stroke-opacity:1"
     id="g105"
     transform="translate(-1.9,-1.9)">
    <path
       d="M 12,10.9334 V 9.6108"
       id="path105" />
  </g>
  <g
     style="fill:none;stroke:#4d7fc4;stroke-width:0.254;stroke-linecap:round;stroke-linejoin:round;stroke-opacity:1"
     id="g108"
     transform="translate(-1.9,-1.9)">
    <path
       d="m 10.5,10.9334 v 0.4485"
       id="path106" />
    <path
       d="m 12,11.142 0.27,0.27"
       id="path107" />
    <path
       d="m 10.372,11.5099 v 0.5202"
       id="path108" />
  </g>
  <g
     style="fill:none;stroke:#4d7fc4;stroke-width:0.1524;stroke-linecap:round;stroke-linejoin:round;stroke-opacity:1"
     id="g109"
     transform="translate(-1.9,-1.9)">
    <path
       d="m 12,9.6108 -0.25,-0.25"
       id="path109" />
  </g>
  <g
     style="fill:none;stroke:#4d7fc4;stroke-width:0.254;stroke-linecap:round;stroke-linejoin:round;stroke-opacity:1"
     id="g126"
     transform="translate(-1.9,-1.9)">
    <path
       d="M 10.5,10.9334 V 9.77"
       id="path110" />
    <path
       d="M 12,10.9334 V 11.142"
       id="path111" />
    <path
       d="m 10.372,12.0301 0.128,0.128"
       id="path112" />
    <path
       d="M 10.5,9.77 10.75,9.52"
       id="path113" />
    <path
       d="m 10.5,11.3819 -0.128,0.128"
       id="path114" />
    <path
       d="M 10.5,12.1581 V 13.07"
       id="path115" />
    <path
       d="M 9.278,10.342 8.794,10.826"
       id="path116" />
    <path
       d="M 9.75,8.415 V 9.2892"
       id="path117" />
    <path
       d="M 9.278,9.7612 V 10.342"
       id="path118" />
    <path
       d="M 9.75,9.2892 9.278,9.7612"
       id="path119" />
    <path
       d="M 8.794,10.826 H 7.952"
       id="path120" />
    <path
       d="M 14.048,10.826 H 13.156"
       id="path121" />
    <path
       d="M 13.156,10.826 12.75,10.42"
       id="path122" />
    <path
       d="M 12.75,10.42 V 8.415"
       id="path123" />
    <path
       style="fill:#4d7fc4;fill-opacity:1;fill-rule:evenodd;stroke:none"
       d="M 6.5128,2.2222 6.5345,2.2745 6.5128,2.3268 6.479,2.3449 6.4793,2.3458 6.4758,2.3469 6.3484,2.3997 6.2338,2.4763 v 0 L 6.1363,2.5738 v 0 L 6.0597,2.6884 6.0069,2.8158 v 0 L 5.98,2.9511 V 3.07 h 0.4 v 0.5 h -0.4 v 0.1189 l 0.0269,0.1353 v 0 L 6.0597,3.9516 6.1363,4.0662 6.2338,4.1637 6.3484,4.2403 6.43,4.2741 v 0 V 3.787 L 6.4399,3.8042 6.4958,3.8601 6.5642,3.8996 6.6405,3.92 h 0.079 L 6.7958,3.8996 6.8642,3.8601 6.9201,3.8042 6.93,3.787 V 4.2741 L 7.0116,4.2403 7.1262,4.1637 v 0 L 7.2237,4.0662 v 0 L 7.3003,3.9516 7.3531,3.8242 v 0 L 7.38,3.6889 V 3.57 h -0.4 v -0.5 h 0.4 V 2.9511 L 7.3531,2.8158 v 0 L 7.3003,2.6884 7.2237,2.5738 7.1262,2.4763 7.0116,2.3997 6.8842,2.3469 6.8807,2.3458 6.8811,2.3444 6.838,2.3156 6.8269,2.2601 6.8584,2.213 6.8995,2.2005 h 8.201 l 0.0523,0.0217 0.0217,0.0523 -0.0217,0.0523 -0.0338,0.0181 3e-4,9e-4 -0.0035,0.0011 -0.1274,0.0528 -0.1146,0.0766 v 0 l -0.0975,0.0975 v 0 l -0.0766,0.1146 -0.0528,0.1274 v 0 L 14.62,2.9511 V 3.07 h 0.4 v 0.5 h -0.4 v 0.1189 l 0.0269,0.1353 v 0 l 0.0528,0.1274 0.0766,0.1146 0.0975,0.0975 0.1146,0.0766 0.0816,0.0338 v 0 -0.4871 l 0.0099,0.0172 0.0559,0.0559 0.0684,0.0395 0.0763,0.0204 h 0.079 L 15.4358,3.8996 15.5042,3.8601 15.5601,3.8042 15.57,3.787 v 0.4871 l 0.0816,-0.0338 0.1146,-0.0766 v 0 l 0.0975,-0.0975 v 0 l 0.0503,-0.0752 0.0471,-0.0314 0.0555,0.011 0.0315,0.0471 0.0014,0.0144 v 0.0957 l 0.0334,0.2535 0.0661,0.247 h 10e-5 l 0.0978,0.2362 v 0 l 0.1278,0.2215 v 0 l 0.1557,0.2028 0.1808,0.1808 0.2028,0.1557 0.2215,0.1278 0.2362,0.0979 0.247,0.0661 0.2535,0.0334 v 0 h 0.2556 v 0 L 18.3813,5.9171 18.6283,5.851 18.8645,5.7531 19.086,5.6253 19.2888,5.4696 19.4696,5.2888 19.6253,5.086 19.6614,5.0233 19.7063,4.9889 19.7625,4.9963 19.797,5.0412 19.7995,5.0603 V 15.4397 L 19.7778,15.492 19.7255,15.5137 19.6732,15.492 19.6614,15.4767 19.6253,15.414 v 0 L 19.4696,15.2112 19.2888,15.0304 19.086,14.8747 v 0 l -0.2215,-0.1278 v 0 l -0.2362,-0.0978 v -1e-4 0 l -0.0432,-0.0115 -0.0449,-0.0345 -0.0074,-0.0562 0.0345,-0.0449 0.037,-0.0099 h 0.038 l 0.0183,-0.0049 0.0729,-0.0195 v 0 l 0.0244,-0.0066 v 0 0 l 0.1037,-0.0598 0.0846,-0.0846 v 0 l 0.3329,-0.3329 v 0 l 0.0846,-0.0846 0.0598,-0.1037 0.0099,-0.037 0.0211,-0.0786 v -0.1196 -0.0046 0 -0.0657 l 0.0217,-0.0523 0.002,-0.0021 v 0 l 0.0953,-0.0953 0.0612,-0.1201 0.0158,-0.0996 v -0.817 L 19.649,12.2938 19.6347,12.2039 v 0 l -0.0241,-0.0474 -0.0371,-0.0727 -0.0953,-0.0953 -0.002,-0.0021 -0.0217,-0.0523 v -0.5513 0 -0.1256 l -0.0015,-0.0056 -0.0295,-0.11 -0.006,-0.0104 -0.0249,-0.0431 v 0 l -0.0289,-0.0502 -0.0872,-0.0872 v 0 l -0.0673,-0.0673 -0.0217,-0.0523 v -0.8314 0 L 19.1846,9.9693 19.1794,9.9542 19.1398,9.8411 v 0 L 19.0592,9.7319 19.0591,9.7318 18.9499,9.6512 v 0 L 18.8217,9.6064 v 0 0 0 L 18.7913,9.6035 h -1.3586 l -0.0304,0.0029 v 0 0 l -0.1282,0.0448 v 0 l -0.1092,0.0806 -10e-5,10e-5 -0.0806,0.1092 v 0 l -0.0448,0.1282 v 0 0 l -0.0029,0.0304 v 0.8586 l 0.0029,0.0304 v 0 0 l 0.0448,0.1282 v 0 l 0.0806,0.1092 10e-5,1e-4 0.1092,0.0806 v 0 l 0.1282,0.0448 v 0 l 0.0304,0.0029 h 0.8314 l 0.0523,0.0217 0.2074,0.2074 0.0217,0.0523 v 0.3982 l -0.0217,0.0523 -0.0973,0.0974 v 0 l -0.0612,0.1201 v 0 l -0.0158,0.0996 v 0.817 l 0.0158,0.0996 v 0 l 0.0612,0.1201 0.0529,0.053 v 0 l 0.0184,0.0444 0.0033,0.0079 -0.0217,0.0523 -0.0635,0.0635 -0.0523,0.0217 H 13.0745 L 13.0222,13.5613 13.0005,13.509 v -0.7673 0 l -0.0099,-0.0681 -0.0514,-0.1051 -0.0827,-0.0827 v 0 l -0.1051,-0.0514 -0.0681,-0.0099 v 0 h -0.3666 v 0 l -0.0681,0.0099 v 0 l -0.1051,0.0514 -0.0827,0.0827 -6e-4,8e-4 -6e-4,4e-4 -0.0031,0.0032 -8e-4,-8e-4 -0.0435,0.0272 -0.0552,-0.0128 -0.0095,-0.0081 -0.0068,-0.0068 -0.0015,-0.0031 -0.0827,-0.0827 -0.0018,-9e-4 -0.0057,-0.0058 -0.0086,-0.0208 -0.0119,-0.0191 -10e-4,-0.0122 v -0.1026 l 0.0217,-0.0523 0.0409,-0.0409 0.0431,-0.0747 0.0223,-0.0833 v 0 -0.1367 l 0.0217,-0.0523 0.0523,-0.0217 0.037,0.0099 0.0103,0.006 0.1273,0.0341 v 0 0 h 0.1318 v 0 l 0.1273,-0.0341 0.1141,-0.0659 0.0932,-0.0932 0.0659,-0.1141 0.0341,-0.1273 v 0 -0.1318 0 l -0.002,-0.0073 -0.0321,-0.12 -0.0659,-0.1141 -0.0932,-0.0932 -0.1141,-0.0659 v 0 l -0.0579,-0.0155 -0.0449,-0.0345 -0.0099,-0.037 v -0.1523 0 l -0.0106,-0.0536 0.011,-0.0555 0.0471,-0.0315 0.0555,0.0111 0.023,0.0245 0.0114,0.0198 0.467,0.467 0.0288,0.0166 0.0459,0.0265 0.0585,0.0157 0.0248,0.0066 v 0 0 h 0.0862 0.144 l 0.0524,0.0217 0.0136,0.0187 0.0358,0.0704 v 0 l 0.0898,0.0897 0.113,0.0576 0.0938,0.0149 h 0.613 v 0 l 0.0938,-0.0149 v 0 l 0.0566,-0.0288 0.0564,-0.0288 0.0897,-0.0897 0.0576,-0.113 0.0149,-0.0938 v -0.463 -3e-4 l -0.0149,-0.0935 v 0 l -0.0298,-0.0586 -0.0278,-0.0544 -0.0458,-0.0459 -0.0217,-0.0523 0.0217,-0.0523 0.0523,-0.0217 h 0.5488 v 0 h 0.0045 0.1197 l 0.0182,-0.0049 0.073,-0.0195 v 0 l 0.0244,-0.0066 v 0 0 l 0.1036,-0.0598 0.0846,-0.0846 v 0 l 0.9698,-0.9698 v 0 l 0.0846,-0.0846 0.0598,-0.1036 0.0066,-0.0244 0.0244,-0.0912 v -0.1197 -0.0045 0 -0.2414 l 0.0217,-0.0523 0.1605,-0.1605 0.0523,-0.0217 0.0524,0.0217 0.015,0.024 2e-4,-10e-5 0.0012,0.0023 0.0011,0.0017 3e-4,9e-4 0.0806,0.1092 10e-5,10e-5 0.1092,0.0806 v 0 l 0.1282,0.0448 v 0 l 0.0304,0.0029 v 0 h 1.3586 v 0 L 18.8217,8.4516 18.9499,8.4068 19.0591,8.3262 19.1398,8.2169 19.1846,8.0887 19.1875,8.0583 V 7.1997 L 19.1846,7.1693 19.1691,7.1249 19.1398,7.0411 v 0 L 19.0592,6.9319 19.0591,6.9318 18.9499,6.8512 v 0 L 18.8217,6.8064 v 0 0 0 L 18.7913,6.8035 h -1.3586 l -0.0304,0.0029 v 0 0 l -0.1282,0.0448 v 0 l -0.1092,0.0806 -10e-5,10e-5 -0.0806,0.1092 v 0 L 17.0549,7.1249 17.0171,7.1672 16.985,7.1745 H 16.8182 L 16.7604,7.19 16.7026,7.2055 v 0 L 16.5989,7.2653 16.5143,7.3499 16.1195,7.7448 16.0671,7.7665 16.0273,7.75 H 15.62 v -0.5 h 0.4 V 6.8811 L 15.9931,6.7458 v 0 L 15.9403,6.6184 15.8637,6.5038 15.7662,6.4063 15.6516,6.3297 15.57,6.2959 V 6.783 L 15.5601,6.7658 15.5042,6.7099 15.4358,6.6704 15.3595,6.65 h -0.079 L 15.2042,6.6704 15.1358,6.7099 15.0799,6.7658 15.07,6.783 v -0.4871 0 l -0.0816,0.0338 -0.1146,0.0766 v 0 l -0.0975,0.0975 v 0 l -0.0766,0.1146 -0.0528,0.1274 v 0 L 14.62,6.8811 V 7.25 h 0.4 v 0.5 h -0.4 v 0.3689 l 0.0269,0.1353 v 0 l 0.0528,0.1274 0.0766,0.1146 0.0975,0.0975 0.1146,0.0766 0.0816,0.0338 v 0 -0.4871 l 0.0099,0.0172 0.0559,0.0559 0.0684,0.0395 0.0763,0.0204 h 0.079 L 15.4358,8.3296 15.5042,8.2901 15.5601,8.2342 15.57,8.217 v 0.4922 l 0.0253,0.0379 -0.0111,0.0555 -0.0092,0.0112 -0.4709,0.471 -0.0524,0.0217 H 14.0115 L 13.9592,9.2848 13.9375,9.2325 13.9389,9.2181 13.9505,9.1597 V 7.7229 7.6703 l -0.01,-0.0503 -3e-4,-0.0036 0.0072,-0.0238 0.0049,-0.0245 0.0033,-0.0024 0.0011,-0.0035 0.015,-0.008 0.023,-0.0164 0.1174,-0.0315 0.1313,-0.0758 0.1071,-0.1071 0.0758,-0.1313 0.0392,-0.1463 v 0 -0.1516 0 L 14.4263,6.7479 v 0 L 14.3505,6.6166 14.2434,6.5095 14.2335,6.5038 14.1121,6.4337 v 0 L 13.9658,6.3945 v 0 h -0.1516 v 0 l -0.1463,0.0392 v 0 l -0.1313,0.0758 -0.1071,0.1071 -0.0758,0.1313 v 0 l -0.0392,0.1463 v 0.1516 l 0.0392,0.1463 v 0 l 0.0423,0.0732 0.0335,0.0581 0.0398,0.0398 0.0217,0.0523 -0.0217,0.0523 -0.0523,0.0217 H 13.1303 L 13.0913,7.4973 13.0718,7.5011 13.0661,7.5049 13.0106,7.516 12.9839,7.5049 12.9782,7.5011 12.9197,7.4895 h -0.3394 l -0.0585,0.0116 v 0 l -0.0072,0.0015 -8e-4,-0.0042 h -0.0276 l -8e-4,0.0042 -0.0072,-0.0015 -0.0585,-0.0116 h -0.3394 l -0.0585,0.0116 v 0 l -0.0072,0.0015 -8e-4,-0.0042 h -0.0276 l -8e-4,0.0042 -0.0072,-0.0015 -0.0585,-0.0116 h -0.3394 l -0.0585,0.0116 v 0 l -0.0072,0.0015 -8e-4,-0.0042 h -0.0276 l -8e-4,0.0042 -0.0072,-0.0015 -0.0585,-0.0116 h -0.3394 l -0.0585,0.0116 v 0 l -0.0072,0.0015 -8e-4,-0.0042 h -0.0276 l -8e-4,0.0042 -0.0072,-0.0015 -0.0585,-0.0116 h -0.3394 l -0.0585,0.0116 v 0 l -0.0072,0.0015 -8e-4,-0.0042 h -0.0276 l -8e-4,0.0042 -0.0072,-0.0015 -0.0585,-0.0116 h -0.3394 l -0.0585,0.0116 v 0 l -0.0072,0.0015 -8e-4,-0.0042 H 9.9862 L 9.9854,7.5026 9.9782,7.5011 9.9197,7.4895 H 9.5803 L 9.5218,7.5011 v 0 L 9.5146,7.5026 9.5138,7.4984 H 9.4862 L 9.4854,7.5026 9.4782,7.5011 9.4197,7.4895 H 9.0803 L 9.0413,7.4973 9.0218,7.5011 9.0161,7.5049 8.9606,7.516 8.9339,7.5049 8.9282,7.5011 8.8697,7.4895 v 0 H 8.583 L 8.5307,7.4678 8.509,7.4155 8.5307,7.3632 8.5705,7.3234 8.6463,7.1921 8.6855,7.0458 v 0 -0.1516 0 L 8.6463,6.7479 v 0 L 8.5705,6.6166 8.4634,6.5095 8.4535,6.5038 8.3321,6.4337 v 0 L 8.1858,6.3945 v 0 H 8.0342 v 0 L 7.8879,6.4337 v 0 L 7.7566,6.5095 7.6495,6.6166 7.5737,6.7479 v 0 L 7.5345,6.8942 v 0.1516 l 0.0392,0.1463 v 0 L 7.616,7.2653 7.6495,7.3234 7.7566,7.4305 7.8879,7.5063 8.0053,7.5378 8.0503,7.5722 8.0588,7.6237 8.0495,7.6703 V 9.1597 L 8.0611,9.2182 8.083,9.251 8.0955,9.2921 v 0.2353 l -0.0099,0.037 -0.002,0.0034 v 0 L 8.0495,9.6951 v 0.1318 l 0.0341,0.1273 v 0 l 0.0659,0.1141 0.0309,0.0309 0.0216,0.0523 -0.0216,0.0523 -0.0524,0.0217 H 7.6455 l -0.0938,0.0149 v 0 l -0.113,0.0576 -0.0897,0.0897 -0.0576,0.113 -0.0149,0.0938 v 0.463 l 0.0149,0.0938 v 0 l 0.0473,0.0929 0.0102,0.0201 0.0898,0.0897 0.113,0.0576 0.0938,0.0149 h 0.613 v 0 l 0.0938,-0.0149 v 0 L 8.4089,11.3828 8.4653,11.354 8.555,11.2643 8.5653,11.2442 8.5909,11.1939 8.634,11.1571 8.6569,11.1535 h 0.1802 v 0 l 0.0586,-0.0157 0.0247,-0.0066 v 0 0 l 0.0747,-0.0431 0.545,-0.545 0.021,-0.0364 0.0135,-0.0103 0.0094,-0.0142 0.0122,-0.0024 0.0098,-0.0076 0.0169,0.0023 0.0167,-0.0034 0.0103,0.0069 0.0122,0.0016 0.0246,0.023 0.0031,0.0047 0.0111,0.0555 -0.0111,0.0267 -0.0243,0.0364 -0.016,0.0804 v 0.1523 L 9.6278,10.911 9.5947,10.9301 9.5368,10.9456 v 0 l -0.1141,0.0659 -0.0932,0.0932 -0.0659,0.1141 v 0 l -0.0341,0.1273 v 0.1318 l 0.0341,0.1273 v 0 0 l 0.0659,0.1141 0.0932,0.0932 0.1141,0.0659 0.1273,0.0341 v 0 0 h 0.1318 v 0 l 0.1273,-0.0341 0.0103,-0.006 0.0562,-0.0074 0.0449,0.0345 0.0099,0.037 v 0.1367 l 0.0223,0.0833 0.0431,0.0747 0.0409,0.0409 0.0217,0.0523 v 0.1026 l -0.0217,0.0523 -0.0055,0.0047 -0.0845,0.0845 -0.0514,0.1051 v 0 l -0.0099,0.0681 v 1.3166 l 0.0099,0.0681 v 0 l 0.0514,0.1051 v 0 l 0.0827,0.0827 0.1051,0.0514 0.0681,0.0099 v 0 h 0.3666 v 0 l 0.0681,-0.0099 0.1051,-0.0514 0.0827,-0.0827 v 0 l 6e-4,-8e-4 6e-4,-4e-4 0.0031,-0.0032 8e-4,8e-4 0.0435,-0.0272 0.0552,0.0127 0.0172,0.0173 6e-4,8e-4 v 0 l 0.0827,0.0827 0.1051,0.0514 0.0681,0.0099 v 0 h 0.3666 v 0 l 0.0681,-0.0099 0.1051,-0.0514 0.0827,-0.0827 v 0 l 6e-4,-8e-4 6e-4,-4e-4 0.0031,-0.0032 8e-4,8e-4 0.0435,-0.0272 0.0552,0.0127 0.01,0.0086 0.0064,0.0066 0.0014,0.0029 0.0558,0.0558 4e-4,4e-4 2e-4,4e-4 0.0109,0.0142 0.0082,0.0143 v 0 0 l 0.0846,0.0846 0.1037,0.0598 0.1156,0.031 h 4.9555 l 0.0523,0.0217 0.0217,0.0523 -0.0217,0.0523 -0.0331,0.0192 -0.0432,0.0115 v 1e-4 l -0.2362,0.0978 v 0 l -0.2215,0.1278 v 0 l -0.2028,0.1557 -0.1808,0.1808 -0.1557,0.2028 v 0 l -0.1278,0.2215 v 0 l -0.0978,0.2362 h -10e-5 l -0.0661,0.247 -0.0334,0.2535 v 0.2556 l 0.0334,0.2535 0.0661,0.247 h 10e-5 l 0.0978,0.2362 v 0 l 0.1278,0.2215 v 0 l 0.0419,0.0545 0.1138,0.1483 0.1808,0.1808 0.0883,0.0677 0.1145,0.088 v 0 l 0.0627,0.0361 0.0344,0.0449 -0.0074,0.0562 -0.0449,0.0345 -0.0191,0.0025 h -2.3596 l -0.0523,-0.0217 -0.0217,-0.0523 0.0145,-0.0439 0.0322,-0.0437 0.0448,-0.1282 v 0 0 l 0.0029,-0.0304 v -1.4086 l -0.0029,-0.0304 -0.0448,-0.1282 v 0 l -0.0806,-0.1092 -1e-4,-10e-5 -0.1092,-0.0806 v 0 l -0.1282,-0.0448 v 0 0 0 l -0.0304,-0.0029 h -0.8086 l -0.0304,0.0029 v 0 0 l -0.1282,0.0448 v 0 l -0.1092,0.0806 -10e-5,10e-5 -0.0806,0.1092 v 0 l -0.0448,0.1282 v 0 0 l -0.0029,0.0304 v 1.4086 l 0.0029,0.0304 v 0 0 l 0.0448,0.1282 0.0322,0.0437 0.0137,0.0549 -0.0293,0.0485 -0.0439,0.0145 H 8.9801 L 8.9278,18.2778 8.9061,18.2255 8.9206,18.1816 8.9528,18.1379 8.9976,18.0097 v 0 0 L 9.0005,17.9793 V 16.5707 L 8.9976,16.5403 8.9528,16.4121 v 0 L 8.8722,16.3029 8.8721,16.3028 8.7629,16.2222 v 0 L 8.6347,16.1774 v 0 0 0 L 8.6043,16.1745 H 7.7957 l -0.0304,0.0029 v 0 0 l -0.1282,0.0448 v 0 l -0.1092,0.0806 -10e-5,10e-5 -0.0806,0.1092 v 0 l -0.0448,0.1282 v 0 0 l -0.0029,0.0304 v 1.4086 l 0.0029,0.0304 v 0 0 l 0.0448,0.1282 0.0322,0.0437 0.0137,0.0549 -0.0293,0.0485 -0.0439,0.0145 H 5.0603 L 5.008,18.2778 4.9863,18.2255 5.008,18.1732 5.0233,18.1614 5.0641,18.1379 5.086,18.1253 5.2888,17.9696 5.4696,17.7888 5.6253,17.586 5.7531,17.3645 5.851,17.1283 5.9171,16.8813 5.9505,16.6278 V 16.3722 L 5.9171,16.1187 5.851,15.8717 5.7531,15.6355 5.6253,15.414 5.4696,15.2112 5.2888,15.0304 5.086,14.8747 v 0 L 4.8645,14.7469 v 0 L 4.6283,14.6491 v -1e-4 0 L 4.5851,14.6375 4.3813,14.5829 4.1946,14.5583 4.1278,14.5495 H 3.8722 l -0.059,0.0078 -0.1945,0.0256 -0.247,0.0661 v 1e-4 l -0.2362,0.0978 v 0 L 2.914,14.8747 v 0 L 2.7112,15.0304 2.5304,15.2112 2.3747,15.414 v 0 L 2.3386,15.4767 2.2937,15.5111 2.2375,15.5037 2.203,15.4588 2.2005,15.4397 V 6.8811 H 5.98 V 7.25 h 0.4 v 0.5 h -0.4 v 0.3689 l 0.0269,0.1353 v 0 L 6.0597,8.3816 6.1363,8.4962 6.2338,8.5937 6.3484,8.6703 6.43,8.7041 v 0 V 8.217 L 6.4399,8.2342 6.4958,8.2901 6.5642,8.3296 6.6405,8.35 h 0.079 L 6.7958,8.3296 6.8642,8.2901 6.9201,8.2342 6.93,8.217 V 8.7041 L 7.0116,8.6703 7.1262,8.5937 v 0 L 7.2237,8.4962 v 0 L 7.3003,8.3816 7.3531,8.2542 v 0 L 7.38,8.1189 V 7.75 h -0.4 v -0.5 h 0.4 V 6.8811 L 7.3531,6.7458 v 0 L 7.3003,6.6184 7.2237,6.5038 7.1262,6.4063 7.0116,6.3297 6.93,6.2959 V 6.783 L 6.9201,6.7658 6.8642,6.7099 6.7958,6.6704 6.7195,6.65 H 6.6405 L 6.5642,6.6704 6.4958,6.7099 6.4399,6.7658 6.43,6.783 v -0.4871 0 L 6.3484,6.3297 6.2338,6.4063 v 0 L 6.1363,6.5038 v 0 L 6.0597,6.6184 6.0069,6.7458 v 0 L 5.98,6.8811 H 2.2005 V 4.0024 L 2.2007,3.9976 2.2156,3.77 2.2168,3.7604 2.2609,3.539 2.2634,3.5297 2.2682,3.5156 2.3359,3.3159 2.3396,3.307 2.4394,3.1046 2.4443,3.0962 2.4618,3.07 2.5697,2.9086 2.5755,2.9009 2.7244,2.7312 2.7312,2.7244 2.9009,2.5755 2.9086,2.5697 3.0962,2.4443 3.1046,2.4394 3.307,2.3396 3.3159,2.3359 3.5297,2.2634 3.539,2.2609 3.7604,2.2168 3.77,2.2156 3.9976,2.2007 4.0024,2.2005 h 0.0375 2.4206 z"
       id="path124" />
    <path
       style="fill:#4d7fc4;fill-opacity:1;fill-rule:evenodd;stroke:none"
       d="m 11.0523,9.7855 0.0781,0.0781 0.0217,0.0523 -0.0014,0.0144 -0.0012,0.006 v 0.4542 l 0.016,0.0804 0.0014,0.0033 0.0056,0.0283 v 0.0917 l -0.0056,0.0284 -0.0014,0.0033 -0.016,0.0804 v 0.4542 l 0.016,0.0804 0.0014,0.0033 0.0056,0.0283 v 0.1525 l 0.0223,0.0833 0.0431,0.0747 0.0409,0.0409 0.0217,0.0523 v 0.1876 l -0.0217,0.0523 -0.0409,0.0409 -0.0431,0.0747 -0.0223,0.0833 v 0.312 l -0.0215,0.0521 -0.0057,0.0058 -0.0018,9e-4 -0.0827,0.0827 -0.0015,0.0031 -0.0068,0.0068 -0.021,0.0088 -0.0193,0.0121 -0.0061,-0.0014 -0.0058,0.0024 -0.0211,-0.0086 -0.0222,-0.0052 -0.0067,-0.0066 -0.0024,-10e-4 -0.001,-0.0025 -0.0071,-0.0071 -6e-4,-8e-4 -0.0871,-0.087 0.0017,-0.0017 -0.0253,-0.0406 -10e-4,-0.0122 v -0.312 0 l -0.0223,-0.0833 -0.0258,-0.0447 -0.0173,-0.03 -0.0409,-0.0409 -0.0217,-0.0523 v -0.1876 l 0.0217,-0.0523 0.0186,-0.0187 0.0223,-0.0222 0.0431,-0.0747 0.0223,-0.0833 v 0 -0.1525 l 0.0056,-0.0283 0.0014,-0.0033 v 0 0 l 0.016,-0.0804 v -0.4542 l -0.016,-0.0804 v 0 l -0.0014,-0.0033 -0.0056,-0.0284 v -0.0917 l 0.0056,-0.0283 0.0014,-0.0033 v 0 0 l 0.016,-0.0804 V 9.9363 L 10.8493,9.9303 10.8604,9.8748 10.8696,9.8636 10.9477,9.7855 11,9.7638 Z"
       id="path125" />
    <path
       style="fill:#4d7fc4;fill-opacity:1;fill-rule:evenodd;stroke:none"
       d="M 16.992,2.2222 17.0137,2.2745 16.992,2.3268 16.9767,2.3386 16.914,2.3747 v 0 L 16.7112,2.5304 16.5304,2.7112 16.3747,2.914 v 0 l -0.1278,0.2215 v 0 L 16.1491,3.3717 H 16.149 L 16.1106,3.5152 16.0761,3.5601 16.0391,3.57 H 15.62 v -0.5 h 0.4 V 2.9511 L 15.9931,2.8158 v 0 L 15.9403,2.6884 15.8637,2.5738 15.7662,2.4763 15.6516,2.3997 15.5242,2.3469 15.5207,2.3458 15.5211,2.3444 15.478,2.3156 15.4669,2.2601 15.4984,2.213 15.5395,2.2005 h 1.4002 z"
       id="path126" />
  </g>
  <g
     style="fill:none;stroke:#d0d2cd;stroke-width:0.2;stroke-linecap:round;stroke-linejoin:round;stroke-opacity:1"
     id="g134"
     transform="translate(-1.9,-1.9)">
    <path
       d="M 4,2 A 2,2 0 0 0 2,4"
       id="path127" />
    <path
       d="M 20,4 V 16.5"
       id="path128" />
    <path
       d="M 20,4 A 2,2 0 0 0 18,2"
       id="path129" />
    <path
       d="M 4,2 H 18"
       id="path130" />
    <path
       d="m 2,16.5 a 2,2 0 0 0 2,2"
       id="path131" />
    <path
       d="M 2,16.5 V 4"
       id="path132" />
    <path
       d="m 18,18.5 a 2,2 0 0 0 2,-2"
       id="path133" />
    <path
       d="M 18,18.5 H 4"
       id="path134" />
  </g>
  <g
     style="fill:#ffffff;fill-opacity:1;stroke:none"
     id="g135"
     transform="translate(-1.9,-1.9)">
    <circle
       cx="11"
       cy="11.77"
       r="0.15000001"
       id="circle134" />
  </g>
  <g
     style="fill:#ffffff;fill-opacity:1;stroke:none"
     id="g136"
     transform="translate(-1.9,-1.9)">
    <circle
       cx="8.5500002"
       cy="9.7609997"
       r="0.15000001"
       id="circle135" />
  </g>
  <g
     style="fill:#ffffff;fill-opacity:1;stroke:none"
     id="g137"
     transform="translate(-1.9,-1.9)">
    <circle
       cx="13.45"
       cy="9.7609997"
       r="0.15000001"
       id="circle136" />
  </g>
  <g
     style="fill:#ffffff;fill-opacity:1;stroke:none"
     id="g138"
     transform="translate(-1.9,-1.9)">
    <circle
       cx="9.7299995"
       cy="11.412"
       r="0.15000001"
       id="circle137" />
  </g>
  <g
     style="fill:#ffffff;fill-opacity:1;stroke:none"
     id="g139"
     transform="translate(-1.9,-1.9)">
    <circle
       cx="11.5"
       cy="13.07"
       r="0.15000001"
       id="circle138" />
  </g>
  <g
     style="fill:#ffffff;fill-opacity:1;stroke:none"
     id="g140"
     transform="translate(-1.9,-1.9)">
    <circle
       cx="10.5"
       cy="13.07"
       r="0.15000001"
       id="circle139" />
  </g>
  <g
     style="fill:#ffffff;fill-opacity:1;stroke:none"
     id="g141"
     transform="translate(-1.9,-1.9)">
    <circle
       cx="12.27"
       cy="11.412"
       r="0.15000001"
       id="circle140" />
  </g>
  <g
     style="fill:#ffffff;fill-opacity:1;stroke:none"
     id="g142"
     transform="translate(-1.9,-1.9)">
    <circle
       cx="4"
       cy="16.5"
       r="1.1"
       id="circle141" />
  </g>
  <g
     style="fill:#ffffff;fill-opacity:1;stroke:none"
     id="g143"
     transform="translate(-1.9,-1.9)">
    <circle
       cx="18"
       cy="16.5"
       r="1.1"
       id="circle142" />
  </g>
  <g
     style="fill:#ffffff;fill-opacity:1;stroke:none"
     id="g144"
     transform="translate(-1.9,-1.9)">
    <circle
       cx="4"
       cy="4"
       r="1.1"
       id="circle143" />
  </g>
  <g
     style="fill:#ffffff;fill-opacity:1;stroke:none"
     id="g145"
     transform="translate(-1.9,-1.9)">
    <circle
       cx="18"
       cy="4"
       r="1.1"
       id="circle144" />
  </g>
  <g
     style="fill:#ffffff;fill-opacity:1;stroke:none"
     id="g146"
     transform="translate(-1.9,-1.9)">
    <circle
       cx="8.1099997"
       cy="6.9699998"
       r="0.32499999"
       id="circle145" />
  </g>
  <g
     style="fill:#ffffff;fill-opacity:1;stroke:none"
     id="g147"
     transform="translate(-1.9,-1.9)">
    <circle
       cx="13.89"
       cy="6.9699998"
       r="0.32499999"
       id="circle146" />
  </g>
  <g
     style="fill:none;stroke:#ffffff;stroke-width:0.6;stroke-linecap:round;stroke-linejoin:round;stroke-opacity:1"
     id="g150"
     transform="translate(-1.9,-1.9)">
    <path
       d="m 6.68,3.02 v 0.6"
       id="path147" />
    <path
       d="m 6.68,6.95 v 1.1"
       id="path148" />
    <path
       d="m 15.32,3.02 v 0.6"
       id="path149" />
    <path
       d="m 15.32,6.95 v 1.1"
       id="path150" />
  </g>
</svg>
